<mxfile host="app.diagrams.net" agent="Mozilla/5.0 (Windows NT 10.0; Win64; x64) AppleWebKit/537.36 (KHTML, like Gecko) Chrome/134.0.0.0 Safari/537.36" version="26.0.8">
  <diagram name="Page-1" id="OO3x3HjmSRNzvBekYgvM">
    <mxGraphModel dx="9000" dy="5800" grid="1" gridSize="10" guides="1" tooltips="1" connect="1" arrows="1" fold="1" page="0" pageScale="1" pageWidth="850" pageHeight="1100" math="0" shadow="0">
      <root>
        <mxCell id="0" />
        <mxCell id="1" parent="0" />
        <mxCell id="BNUVI51xKu-enzcr6GFZ-12" value="" style="endArrow=none;html=1;rounded=0;exitX=0;exitY=0;exitDx=0;exitDy=0;entryX=1;entryY=1;entryDx=0;entryDy=0;" edge="1" parent="1" source="BNUVI51xKu-enzcr6GFZ-45" target="BNUVI51xKu-enzcr6GFZ-47">
          <mxGeometry width="50" height="50" relative="1" as="geometry">
            <mxPoint x="595.14" y="59.83999999999999" as="sourcePoint" />
            <mxPoint x="515.0018303297951" y="-0.263627252653734" as="targetPoint" />
            <Array as="points">
              <mxPoint x="530" y="60" />
            </Array>
          </mxGeometry>
        </mxCell>
        <mxCell id="BNUVI51xKu-enzcr6GFZ-13" value="" style="endArrow=none;html=1;rounded=0;entryX=0.572;entryY=1.065;entryDx=0;entryDy=0;entryPerimeter=0;exitX=0.472;exitY=0;exitDx=0;exitDy=0;exitPerimeter=0;" edge="1" parent="1" source="BNUVI51xKu-enzcr6GFZ-45" target="BNUVI51xKu-enzcr6GFZ-48">
          <mxGeometry relative="1" as="geometry">
            <mxPoint x="653.8399999999999" y="76.13999999999997" as="sourcePoint" />
            <mxPoint x="653.76" y="32.94000000000004" as="targetPoint" />
          </mxGeometry>
        </mxCell>
        <mxCell id="BNUVI51xKu-enzcr6GFZ-14" value="" style="endArrow=none;html=1;rounded=0;exitX=0.896;exitY=-0.025;exitDx=0;exitDy=0;exitPerimeter=0;entryX=0.388;entryY=0.995;entryDx=0;entryDy=0;entryPerimeter=0;" edge="1" parent="1" source="BNUVI51xKu-enzcr6GFZ-45" target="BNUVI51xKu-enzcr6GFZ-49">
          <mxGeometry relative="1" as="geometry">
            <mxPoint x="715" y="79.74" as="sourcePoint" />
            <mxPoint x="757" y="25.739999999999995" as="targetPoint" />
          </mxGeometry>
        </mxCell>
        <mxCell id="BNUVI51xKu-enzcr6GFZ-15" value="" style="endArrow=none;html=1;rounded=0;entryX=0;entryY=1;entryDx=0;entryDy=0;exitX=1;exitY=0.25;exitDx=0;exitDy=0;" edge="1" parent="1" source="BNUVI51xKu-enzcr6GFZ-45" target="BNUVI51xKu-enzcr6GFZ-50">
          <mxGeometry relative="1" as="geometry">
            <mxPoint x="725" y="94.74" as="sourcePoint" />
            <mxPoint x="785" y="89.74" as="targetPoint" />
          </mxGeometry>
        </mxCell>
        <mxCell id="BNUVI51xKu-enzcr6GFZ-16" value="" style="endArrow=none;html=1;rounded=0;exitX=1;exitY=0.5;exitDx=0;exitDy=0;entryX=0;entryY=0.5;entryDx=0;entryDy=0;" edge="1" parent="1" source="BNUVI51xKu-enzcr6GFZ-44" target="BNUVI51xKu-enzcr6GFZ-42">
          <mxGeometry relative="1" as="geometry">
            <mxPoint x="390" y="587" as="sourcePoint" />
            <mxPoint x="460" y="570" as="targetPoint" />
          </mxGeometry>
        </mxCell>
        <mxCell id="BNUVI51xKu-enzcr6GFZ-21" value="" style="endArrow=none;html=1;rounded=0;entryX=0.412;entryY=0.99;entryDx=0;entryDy=0;entryPerimeter=0;exitX=0.5;exitY=0;exitDx=0;exitDy=0;" edge="1" parent="1" source="BNUVI51xKu-enzcr6GFZ-38" target="BNUVI51xKu-enzcr6GFZ-44">
          <mxGeometry relative="1" as="geometry">
            <mxPoint x="330" y="650" as="sourcePoint" />
            <mxPoint x="322.79999999999995" y="609.5799999999999" as="targetPoint" />
          </mxGeometry>
        </mxCell>
        <mxCell id="BNUVI51xKu-enzcr6GFZ-22" value="" style="endArrow=none;html=1;rounded=0;exitX=0.416;exitY=0.08;exitDx=0;exitDy=0;exitPerimeter=0;entryX=0.836;entryY=0.99;entryDx=0;entryDy=0;entryPerimeter=0;" edge="1" parent="1" source="BNUVI51xKu-enzcr6GFZ-39" target="BNUVI51xKu-enzcr6GFZ-44">
          <mxGeometry relative="1" as="geometry">
            <mxPoint x="437.1600000000001" y="644.8" as="sourcePoint" />
            <mxPoint x="390" y="610" as="targetPoint" />
          </mxGeometry>
        </mxCell>
        <mxCell id="BNUVI51xKu-enzcr6GFZ-24" value="" style="endArrow=none;html=1;rounded=0;exitX=0;exitY=0.5;exitDx=0;exitDy=0;entryX=1;entryY=0.25;entryDx=0;entryDy=0;" edge="1" parent="1" source="BNUVI51xKu-enzcr6GFZ-37" target="BNUVI51xKu-enzcr6GFZ-44">
          <mxGeometry relative="1" as="geometry">
            <mxPoint x="150" y="580" as="sourcePoint" />
            <mxPoint x="210" y="520" as="targetPoint" />
            <Array as="points">
              <mxPoint x="420" y="530" />
            </Array>
          </mxGeometry>
        </mxCell>
        <mxCell id="BNUVI51xKu-enzcr6GFZ-26" value="" style="endArrow=none;html=1;rounded=0;exitX=0.75;exitY=0;exitDx=0;exitDy=0;entryX=0;entryY=0.5;entryDx=0;entryDy=0;" edge="1" parent="1" source="BNUVI51xKu-enzcr6GFZ-44" target="BNUVI51xKu-enzcr6GFZ-35">
          <mxGeometry relative="1" as="geometry">
            <mxPoint x="210" y="480" as="sourcePoint" />
            <mxPoint x="142" y="366" as="targetPoint" />
            <Array as="points">
              <mxPoint x="390" y="430" />
            </Array>
          </mxGeometry>
        </mxCell>
        <mxCell id="BNUVI51xKu-enzcr6GFZ-35" value="&lt;span style=&quot;border-bottom: 1px dotted&quot;&gt;&lt;font style=&quot;font-size: 16px;&quot;&gt;branch_id&lt;/font&gt;&lt;/span&gt;" style="ellipse;whiteSpace=wrap;html=1;align=center;fillColor=#fff2cc;strokeColor=#d6b656;" vertex="1" parent="1">
          <mxGeometry x="465" y="370" width="100" height="40" as="geometry" />
        </mxCell>
        <mxCell id="BNUVI51xKu-enzcr6GFZ-36" value="&lt;span style=&quot;font-size: 20px;&quot;&gt;is_active&lt;/span&gt;" style="ellipse;whiteSpace=wrap;html=1;align=center;fillColor=#fff2cc;strokeColor=#d6b656;" vertex="1" parent="1">
          <mxGeometry x="465" y="430" width="100" height="40" as="geometry" />
        </mxCell>
        <mxCell id="BNUVI51xKu-enzcr6GFZ-37" value="&lt;font style=&quot;font-size: 15px;&quot;&gt;track_intake&lt;/font&gt;" style="ellipse;whiteSpace=wrap;html=1;align=center;fillColor=#fff2cc;strokeColor=#d6b656;" vertex="1" parent="1">
          <mxGeometry x="470" y="510" width="100" height="40" as="geometry" />
        </mxCell>
        <mxCell id="BNUVI51xKu-enzcr6GFZ-38" value="&lt;font style=&quot;font-size: 13px;&quot;&gt;track_duration&lt;/font&gt;" style="ellipse;whiteSpace=wrap;html=1;align=center;fillColor=#fff2cc;strokeColor=#d6b656;" vertex="1" parent="1">
          <mxGeometry x="270" y="640" width="100" height="40" as="geometry" />
        </mxCell>
        <mxCell id="BNUVI51xKu-enzcr6GFZ-39" value="&lt;font style=&quot;font-size: 15px;&quot;&gt;track_name&lt;/font&gt;" style="ellipse;whiteSpace=wrap;html=1;align=center;fillColor=#fff2cc;strokeColor=#d6b656;" vertex="1" parent="1">
          <mxGeometry x="400" y="630" width="100" height="40" as="geometry" />
        </mxCell>
        <mxCell id="BNUVI51xKu-enzcr6GFZ-42" value="&lt;span style=&quot;font-size: 20px;&quot;&gt;track_id&lt;/span&gt;" style="ellipse;whiteSpace=wrap;html=1;align=center;fillColor=#fff2cc;strokeColor=#d6b656;" vertex="1" parent="1">
          <mxGeometry x="465" y="560" width="100" height="40" as="geometry" />
        </mxCell>
        <mxCell id="BNUVI51xKu-enzcr6GFZ-44" value="&lt;span style=&quot;font-size: 25px;&quot;&gt;track&lt;/span&gt;" style="whiteSpace=wrap;html=1;align=center;fillColor=#f8cecc;strokeColor=#b85450;" vertex="1" parent="1">
          <mxGeometry x="280" y="550" width="100" height="40" as="geometry" />
        </mxCell>
        <mxCell id="BNUVI51xKu-enzcr6GFZ-45" value="&lt;span style=&quot;font-size: 23px;&quot;&gt;Branch&lt;/span&gt;" style="whiteSpace=wrap;html=1;align=center;fillColor=#f8cecc;strokeColor=#b85450;" vertex="1" parent="1">
          <mxGeometry x="605" y="79.74" width="100" height="40" as="geometry" />
        </mxCell>
        <mxCell id="BNUVI51xKu-enzcr6GFZ-47" value="&lt;span style=&quot;font-size: 20px;&quot;&gt;branch_id&lt;/span&gt;" style="ellipse;whiteSpace=wrap;html=1;align=center;fillColor=#fff2cc;strokeColor=#d6b656;" vertex="1" parent="1">
          <mxGeometry x="425" y="-40.260000000000005" width="100" height="40" as="geometry" />
        </mxCell>
        <mxCell id="BNUVI51xKu-enzcr6GFZ-48" value="&lt;font style=&quot;font-size: 14px;&quot;&gt;branch_name&lt;/font&gt;" style="ellipse;whiteSpace=wrap;html=1;align=center;fillColor=#fff2cc;strokeColor=#d6b656;" vertex="1" parent="1">
          <mxGeometry x="550" y="-40.260000000000005" width="100" height="40" as="geometry" />
        </mxCell>
        <mxCell id="BNUVI51xKu-enzcr6GFZ-49" value="&lt;span style=&quot;font-size: 18px;&quot;&gt;location&lt;/span&gt;" style="ellipse;whiteSpace=wrap;html=1;align=center;fillColor=#fff2cc;strokeColor=#d6b656;" vertex="1" parent="1">
          <mxGeometry x="675" y="-40.260000000000005" width="100" height="40" as="geometry" />
        </mxCell>
        <mxCell id="BNUVI51xKu-enzcr6GFZ-50" value="&lt;span style=&quot;font-size: 18px;&quot;&gt;isactive&lt;/span&gt;" style="ellipse;whiteSpace=wrap;html=1;align=center;fillColor=#fff2cc;strokeColor=#d6b656;" vertex="1" parent="1">
          <mxGeometry x="750" y="19.999999999999996" width="100" height="40" as="geometry" />
        </mxCell>
        <mxCell id="BNUVI51xKu-enzcr6GFZ-51" value="Has" style="shape=rhombus;perimeter=rhombusPerimeter;whiteSpace=wrap;html=1;align=center;fillColor=#dae8fc;strokeColor=#6c8ebf;" vertex="1" parent="1">
          <mxGeometry x="260" y="360" width="120" height="60" as="geometry" />
        </mxCell>
        <mxCell id="BNUVI51xKu-enzcr6GFZ-53" value="" style="endArrow=none;html=1;rounded=0;entryX=0.5;entryY=1;entryDx=0;entryDy=0;exitX=0.5;exitY=0;exitDx=0;exitDy=0;" edge="1" parent="1" source="BNUVI51xKu-enzcr6GFZ-51" target="BNUVI51xKu-enzcr6GFZ-45">
          <mxGeometry relative="1" as="geometry">
            <mxPoint x="330" y="320" as="sourcePoint" />
            <mxPoint x="490" y="320" as="targetPoint" />
          </mxGeometry>
        </mxCell>
        <mxCell id="BNUVI51xKu-enzcr6GFZ-54" value="1" style="resizable=0;html=1;whiteSpace=wrap;align=right;verticalAlign=bottom;" connectable="0" vertex="1" parent="BNUVI51xKu-enzcr6GFZ-53">
          <mxGeometry x="1" relative="1" as="geometry">
            <mxPoint x="-10" y="20" as="offset" />
          </mxGeometry>
        </mxCell>
        <mxCell id="BNUVI51xKu-enzcr6GFZ-58" value="" style="endArrow=none;html=1;rounded=0;exitX=0;exitY=0.5;exitDx=0;exitDy=0;entryX=0.75;entryY=0;entryDx=0;entryDy=0;" edge="1" parent="1" source="BNUVI51xKu-enzcr6GFZ-36" target="BNUVI51xKu-enzcr6GFZ-44">
          <mxGeometry relative="1" as="geometry">
            <mxPoint x="130" y="489.16999999999996" as="sourcePoint" />
            <mxPoint x="210" y="500" as="targetPoint" />
          </mxGeometry>
        </mxCell>
        <mxCell id="BNUVI51xKu-enzcr6GFZ-59" value="&lt;font style=&quot;font-size: 18px;&quot;&gt;Users&lt;/font&gt;" style="rounded=1;arcSize=10;whiteSpace=wrap;html=1;align=center;fillColor=#f8cecc;strokeColor=#b85450;" vertex="1" parent="1">
          <mxGeometry x="-230" y="300" width="100" height="40" as="geometry" />
        </mxCell>
        <mxCell id="BNUVI51xKu-enzcr6GFZ-62" value="&lt;span style=&quot;font-size: 20px;&quot;&gt;username&lt;/span&gt;" style="ellipse;whiteSpace=wrap;html=1;align=center;fillColor=#fff2cc;strokeColor=#d6b656;" vertex="1" parent="1">
          <mxGeometry x="-660" y="270" width="100" height="40" as="geometry" />
        </mxCell>
        <mxCell id="BNUVI51xKu-enzcr6GFZ-63" value="&lt;span style=&quot;font-size: 20px;&quot;&gt;gender&lt;/span&gt;" style="ellipse;whiteSpace=wrap;html=1;align=center;fillColor=#fff2cc;strokeColor=#d6b656;" vertex="1" parent="1">
          <mxGeometry x="-660" y="440" width="100" height="40" as="geometry" />
        </mxCell>
        <mxCell id="BNUVI51xKu-enzcr6GFZ-64" value="&lt;span style=&quot;font-size: 20px;&quot;&gt;isactive&lt;/span&gt;" style="ellipse;whiteSpace=wrap;html=1;align=center;fillColor=#fff2cc;strokeColor=#d6b656;" vertex="1" parent="1">
          <mxGeometry x="-660" y="360" width="100" height="40" as="geometry" />
        </mxCell>
        <mxCell id="BNUVI51xKu-enzcr6GFZ-70" value="&lt;span style=&quot;font-size: 20px;&quot;&gt;Upassword&lt;/span&gt;" style="ellipse;whiteSpace=wrap;html=1;align=center;fillColor=#fff2cc;strokeColor=#d6b656;" vertex="1" parent="1">
          <mxGeometry x="-535" y="540" width="100" height="40" as="geometry" />
        </mxCell>
        <mxCell id="BNUVI51xKu-enzcr6GFZ-71" value="&lt;span style=&quot;font-size: 20px;&quot;&gt;img&lt;/span&gt;" style="ellipse;whiteSpace=wrap;html=1;align=center;fillColor=#fff2cc;strokeColor=#d6b656;" vertex="1" parent="1">
          <mxGeometry x="-655" y="510" width="90" height="50" as="geometry" />
        </mxCell>
        <mxCell id="BNUVI51xKu-enzcr6GFZ-72" value="&lt;span style=&quot;font-size: 20px;&quot;&gt;role&lt;/span&gt;" style="ellipse;whiteSpace=wrap;html=1;align=center;fillColor=#fff2cc;strokeColor=#d6b656;" vertex="1" parent="1">
          <mxGeometry x="-660" y="119.74" width="100" height="40" as="geometry" />
        </mxCell>
        <mxCell id="BNUVI51xKu-enzcr6GFZ-73" value="" style="endArrow=none;html=1;rounded=0;exitX=0.14;exitY=-0.025;exitDx=0;exitDy=0;entryX=1;entryY=0.5;entryDx=0;entryDy=0;exitPerimeter=0;" edge="1" parent="1" source="BNUVI51xKu-enzcr6GFZ-59" target="BNUVI51xKu-enzcr6GFZ-72">
          <mxGeometry width="50" height="50" relative="1" as="geometry">
            <mxPoint x="-185" y="326" as="sourcePoint" />
            <mxPoint x="-280" y="240" as="targetPoint" />
            <Array as="points">
              <mxPoint x="-380" y="160" />
            </Array>
          </mxGeometry>
        </mxCell>
        <mxCell id="BNUVI51xKu-enzcr6GFZ-74" value="" style="endArrow=none;html=1;rounded=0;exitX=0;exitY=0.25;exitDx=0;exitDy=0;entryX=0.952;entryY=0.628;entryDx=0;entryDy=0;entryPerimeter=0;" edge="1" parent="1" source="BNUVI51xKu-enzcr6GFZ-59" target="BNUVI51xKu-enzcr6GFZ-110">
          <mxGeometry width="50" height="50" relative="1" as="geometry">
            <mxPoint x="-285" y="353" as="sourcePoint" />
            <mxPoint x="-524.7592640563813" y="254.18782875652175" as="targetPoint" />
            <Array as="points">
              <mxPoint x="-390" y="235" />
            </Array>
          </mxGeometry>
        </mxCell>
        <mxCell id="BNUVI51xKu-enzcr6GFZ-75" value="" style="endArrow=none;html=1;rounded=0;exitX=0;exitY=0.75;exitDx=0;exitDy=0;entryX=1;entryY=0.5;entryDx=0;entryDy=0;" edge="1" parent="1" source="BNUVI51xKu-enzcr6GFZ-59" target="BNUVI51xKu-enzcr6GFZ-62">
          <mxGeometry width="50" height="50" relative="1" as="geometry">
            <mxPoint x="-255" y="343" as="sourcePoint" />
            <mxPoint x="-400" y="297" as="targetPoint" />
            <Array as="points">
              <mxPoint x="-390" y="300" />
            </Array>
          </mxGeometry>
        </mxCell>
        <mxCell id="BNUVI51xKu-enzcr6GFZ-76" value="" style="endArrow=none;html=1;rounded=0;entryX=1;entryY=0.5;entryDx=0;entryDy=0;exitX=0.1;exitY=0.975;exitDx=0;exitDy=0;exitPerimeter=0;" edge="1" parent="1" source="BNUVI51xKu-enzcr6GFZ-59" target="BNUVI51xKu-enzcr6GFZ-64">
          <mxGeometry width="50" height="50" relative="1" as="geometry">
            <mxPoint x="-270" y="330" as="sourcePoint" />
            <mxPoint x="-395" y="274" as="targetPoint" />
          </mxGeometry>
        </mxCell>
        <mxCell id="BNUVI51xKu-enzcr6GFZ-77" value="" style="endArrow=none;html=1;rounded=0;exitX=0.38;exitY=0.925;exitDx=0;exitDy=0;entryX=1;entryY=0.5;entryDx=0;entryDy=0;exitPerimeter=0;" edge="1" parent="1" source="BNUVI51xKu-enzcr6GFZ-59" target="BNUVI51xKu-enzcr6GFZ-63">
          <mxGeometry width="50" height="50" relative="1" as="geometry">
            <mxPoint x="-240" y="330" as="sourcePoint" />
            <mxPoint x="-385" y="284" as="targetPoint" />
          </mxGeometry>
        </mxCell>
        <mxCell id="BNUVI51xKu-enzcr6GFZ-78" value="" style="endArrow=none;html=1;rounded=0;exitX=0.65;exitY=0.95;exitDx=0;exitDy=0;entryX=1;entryY=0.5;entryDx=0;entryDy=0;exitPerimeter=0;" edge="1" parent="1" source="BNUVI51xKu-enzcr6GFZ-59" target="BNUVI51xKu-enzcr6GFZ-71">
          <mxGeometry width="50" height="50" relative="1" as="geometry">
            <mxPoint x="-230" y="340" as="sourcePoint" />
            <mxPoint x="-375" y="294" as="targetPoint" />
            <Array as="points">
              <mxPoint x="-330" y="450" />
            </Array>
          </mxGeometry>
        </mxCell>
        <mxCell id="BNUVI51xKu-enzcr6GFZ-79" value="" style="endArrow=none;html=1;rounded=0;exitX=0.75;exitY=1;exitDx=0;exitDy=0;entryX=0.5;entryY=0;entryDx=0;entryDy=0;" edge="1" parent="1" source="BNUVI51xKu-enzcr6GFZ-59" target="BNUVI51xKu-enzcr6GFZ-70">
          <mxGeometry width="50" height="50" relative="1" as="geometry">
            <mxPoint x="-220" y="350" as="sourcePoint" />
            <mxPoint x="-365" y="304" as="targetPoint" />
            <Array as="points">
              <mxPoint x="-290" y="480" />
            </Array>
          </mxGeometry>
        </mxCell>
        <mxCell id="BNUVI51xKu-enzcr6GFZ-82" value="&lt;span style=&quot;font-size: 20px;&quot;&gt;isactive&lt;/span&gt;" style="ellipse;whiteSpace=wrap;html=1;align=center;fillColor=#fff2cc;strokeColor=#d6b656;" vertex="1" parent="1">
          <mxGeometry x="-570" y="-150" width="100" height="40" as="geometry" />
        </mxCell>
        <mxCell id="BNUVI51xKu-enzcr6GFZ-85" value="&lt;span style=&quot;font-size: 20px;&quot;&gt;Salary&lt;/span&gt;" style="ellipse;whiteSpace=wrap;html=1;align=center;fillColor=#fff2cc;strokeColor=#d6b656;" vertex="1" parent="1">
          <mxGeometry x="-560" y="-410" width="100" height="40" as="geometry" />
        </mxCell>
        <mxCell id="BNUVI51xKu-enzcr6GFZ-89" value="&lt;span style=&quot;border-bottom: 1px dotted&quot;&gt;&lt;font style=&quot;font-size: 18px;&quot;&gt;userId&lt;/font&gt;&lt;/span&gt;" style="ellipse;whiteSpace=wrap;html=1;align=center;fillColor=#fff2cc;strokeColor=#d6b656;" vertex="1" parent="1">
          <mxGeometry x="-560" y="-280" width="100" height="40" as="geometry" />
        </mxCell>
        <mxCell id="BNUVI51xKu-enzcr6GFZ-90" value="&lt;span style=&quot;border-bottom: 1px dotted&quot;&gt;&lt;font style=&quot;font-size: 18px;&quot;&gt;track_id&lt;/font&gt;&lt;/span&gt;" style="ellipse;whiteSpace=wrap;html=1;align=center;fillColor=#fff2cc;strokeColor=#d6b656;" vertex="1" parent="1">
          <mxGeometry x="-560" y="-220" width="100" height="40" as="geometry" />
        </mxCell>
        <mxCell id="BNUVI51xKu-enzcr6GFZ-91" value="" style="endArrow=none;html=1;rounded=0;exitX=1;exitY=0.5;exitDx=0;exitDy=0;" edge="1" parent="1" source="BNUVI51xKu-enzcr6GFZ-85" target="BNUVI51xKu-enzcr6GFZ-136">
          <mxGeometry relative="1" as="geometry">
            <mxPoint x="-720" y="-180" as="sourcePoint" />
            <mxPoint x="-320" y="-180" as="targetPoint" />
            <Array as="points">
              <mxPoint x="-320" y="-380" />
            </Array>
          </mxGeometry>
        </mxCell>
        <mxCell id="BNUVI51xKu-enzcr6GFZ-92" value="" style="endArrow=none;html=1;rounded=0;exitX=0.965;exitY=0.305;exitDx=0;exitDy=0;exitPerimeter=0;entryX=0;entryY=0.25;entryDx=0;entryDy=0;" edge="1" parent="1" source="BNUVI51xKu-enzcr6GFZ-109" target="BNUVI51xKu-enzcr6GFZ-136">
          <mxGeometry relative="1" as="geometry">
            <mxPoint x="-390" y="-230" as="sourcePoint" />
            <mxPoint x="-310" y="-150" as="targetPoint" />
            <Array as="points">
              <mxPoint x="-330" y="-330" />
            </Array>
          </mxGeometry>
        </mxCell>
        <mxCell id="BNUVI51xKu-enzcr6GFZ-93" value="" style="endArrow=none;html=1;rounded=0;exitX=0.994;exitY=0.3;exitDx=0;exitDy=0;exitPerimeter=0;entryX=0;entryY=0.5;entryDx=0;entryDy=0;" edge="1" parent="1" source="BNUVI51xKu-enzcr6GFZ-89" target="BNUVI51xKu-enzcr6GFZ-136">
          <mxGeometry relative="1" as="geometry">
            <mxPoint x="-380" y="-220" as="sourcePoint" />
            <mxPoint x="-310" y="-140" as="targetPoint" />
            <Array as="points">
              <mxPoint x="-320" y="-268" />
            </Array>
          </mxGeometry>
        </mxCell>
        <mxCell id="BNUVI51xKu-enzcr6GFZ-94" value="" style="endArrow=none;html=1;rounded=0;entryX=0;entryY=0.75;entryDx=0;entryDy=0;" edge="1" parent="1" source="BNUVI51xKu-enzcr6GFZ-90" target="BNUVI51xKu-enzcr6GFZ-136">
          <mxGeometry relative="1" as="geometry">
            <mxPoint x="-370" y="-210" as="sourcePoint" />
            <mxPoint x="-284.99999999999955" y="-139.99999999999977" as="targetPoint" />
            <Array as="points">
              <mxPoint x="-290" y="-220" />
            </Array>
          </mxGeometry>
        </mxCell>
        <mxCell id="BNUVI51xKu-enzcr6GFZ-95" value="" style="endArrow=none;html=1;rounded=0;entryX=0;entryY=1;entryDx=0;entryDy=0;" edge="1" parent="1" source="BNUVI51xKu-enzcr6GFZ-82" target="BNUVI51xKu-enzcr6GFZ-136">
          <mxGeometry relative="1" as="geometry">
            <mxPoint x="-460" y="80" as="sourcePoint" />
            <mxPoint x="-272.5999999999999" y="-140.43999999999983" as="targetPoint" />
            <Array as="points">
              <mxPoint x="-260" y="-170" />
            </Array>
          </mxGeometry>
        </mxCell>
        <mxCell id="BNUVI51xKu-enzcr6GFZ-98" value="&lt;font style=&quot;font-size: 17px;&quot;&gt;IS&lt;/font&gt;" style="shape=rhombus;perimeter=rhombusPerimeter;whiteSpace=wrap;html=1;align=center;fillColor=#dae8fc;strokeColor=#6c8ebf;" vertex="1" parent="1">
          <mxGeometry x="-300" y="50" width="120" height="60" as="geometry" />
        </mxCell>
        <mxCell id="BNUVI51xKu-enzcr6GFZ-100" value="" style="shape=link;html=1;rounded=0;entryX=0.5;entryY=0;entryDx=0;entryDy=0;exitX=0.5;exitY=1;exitDx=0;exitDy=0;" edge="1" parent="1" source="BNUVI51xKu-enzcr6GFZ-51" target="BNUVI51xKu-enzcr6GFZ-44">
          <mxGeometry relative="1" as="geometry">
            <mxPoint x="-20" y="319.23" as="sourcePoint" />
            <mxPoint x="140" y="319" as="targetPoint" />
          </mxGeometry>
        </mxCell>
        <mxCell id="BNUVI51xKu-enzcr6GFZ-101" value="N" style="resizable=0;html=1;whiteSpace=wrap;align=right;verticalAlign=bottom;" connectable="0" vertex="1" parent="BNUVI51xKu-enzcr6GFZ-100">
          <mxGeometry x="1" relative="1" as="geometry" />
        </mxCell>
        <mxCell id="BNUVI51xKu-enzcr6GFZ-103" value="" style="shape=link;html=1;rounded=0;entryX=0.5;entryY=1;entryDx=0;entryDy=0;exitX=0.5;exitY=0;exitDx=0;exitDy=0;" edge="1" parent="1" source="BNUVI51xKu-enzcr6GFZ-98" target="BNUVI51xKu-enzcr6GFZ-136">
          <mxGeometry relative="1" as="geometry">
            <mxPoint x="-400" y="120" as="sourcePoint" />
            <mxPoint x="-234.99999999999955" y="-139.99999999999977" as="targetPoint" />
          </mxGeometry>
        </mxCell>
        <mxCell id="BNUVI51xKu-enzcr6GFZ-104" value="1" style="resizable=0;html=1;whiteSpace=wrap;align=right;verticalAlign=bottom;" connectable="0" vertex="1" parent="BNUVI51xKu-enzcr6GFZ-103">
          <mxGeometry x="1" relative="1" as="geometry">
            <mxPoint x="-625" y="-330" as="offset" />
          </mxGeometry>
        </mxCell>
        <mxCell id="BNUVI51xKu-enzcr6GFZ-105" value="" style="endArrow=none;html=1;rounded=0;exitX=0.5;exitY=0;exitDx=0;exitDy=0;" edge="1" parent="1" source="BNUVI51xKu-enzcr6GFZ-59" target="BNUVI51xKu-enzcr6GFZ-98">
          <mxGeometry relative="1" as="geometry">
            <mxPoint x="-400" y="120" as="sourcePoint" />
            <mxPoint x="-240" y="120" as="targetPoint" />
          </mxGeometry>
        </mxCell>
        <mxCell id="BNUVI51xKu-enzcr6GFZ-106" value="1" style="resizable=0;html=1;whiteSpace=wrap;align=right;verticalAlign=bottom;" connectable="0" vertex="1" parent="BNUVI51xKu-enzcr6GFZ-105">
          <mxGeometry x="1" relative="1" as="geometry" />
        </mxCell>
        <mxCell id="BNUVI51xKu-enzcr6GFZ-107" value="1" style="resizable=0;html=1;whiteSpace=wrap;align=right;verticalAlign=bottom;" connectable="0" vertex="1" parent="1">
          <mxGeometry x="-104.97250075647071" y="-271.04497125409944" as="geometry" />
        </mxCell>
        <mxCell id="BNUVI51xKu-enzcr6GFZ-108" value="&lt;font style=&quot;font-size: 18px;&quot;&gt;Student&lt;/font&gt;" style="rounded=1;arcSize=10;whiteSpace=wrap;html=1;align=center;fillColor=#f8cecc;strokeColor=#b85450;" vertex="1" parent="1">
          <mxGeometry x="-300" y="720" width="100" height="40" as="geometry" />
        </mxCell>
        <mxCell id="BNUVI51xKu-enzcr6GFZ-109" value="&lt;font style=&quot;font-size: 17px;&quot;&gt;Ins_Id&lt;/font&gt;" style="ellipse;whiteSpace=wrap;html=1;align=center;fontStyle=4;fillColor=#fff2cc;strokeColor=#d6b656;" vertex="1" parent="1">
          <mxGeometry x="-560" y="-340" width="100" height="40" as="geometry" />
        </mxCell>
        <mxCell id="BNUVI51xKu-enzcr6GFZ-110" value="&lt;span style=&quot;font-size: 17px;&quot;&gt;userId&lt;/span&gt;" style="ellipse;whiteSpace=wrap;html=1;align=center;fontStyle=4;fillColor=#fff2cc;strokeColor=#d6b656;" vertex="1" parent="1">
          <mxGeometry x="-660" y="190" width="100" height="40" as="geometry" />
        </mxCell>
        <mxCell id="BNUVI51xKu-enzcr6GFZ-111" value="&lt;span style=&quot;font-size: 17px;&quot;&gt;StudentId&lt;/span&gt;" style="ellipse;whiteSpace=wrap;html=1;align=center;fontStyle=4;fillColor=#fff2cc;strokeColor=#d6b656;" vertex="1" parent="1">
          <mxGeometry x="-530" y="840" width="100" height="40" as="geometry" />
        </mxCell>
        <mxCell id="BNUVI51xKu-enzcr6GFZ-112" value="&lt;span style=&quot;border-bottom: 1px dotted&quot;&gt;&lt;font style=&quot;font-size: 18px;&quot;&gt;track_id&lt;/font&gt;&lt;/span&gt;" style="ellipse;whiteSpace=wrap;html=1;align=center;fillColor=#fff2cc;strokeColor=#d6b656;" vertex="1" parent="1">
          <mxGeometry x="-510" y="930" width="100" height="40" as="geometry" />
        </mxCell>
        <mxCell id="BNUVI51xKu-enzcr6GFZ-114" value="&lt;span style=&quot;font-size: 20px;&quot;&gt;isactive&lt;/span&gt;" style="ellipse;whiteSpace=wrap;html=1;align=center;fillColor=#fff2cc;strokeColor=#d6b656;" vertex="1" parent="1">
          <mxGeometry x="-260" y="920" width="100" height="40" as="geometry" />
        </mxCell>
        <mxCell id="BNUVI51xKu-enzcr6GFZ-115" value="&lt;font style=&quot;font-size: 15px;&quot;&gt;EnrollmentDate&lt;/font&gt;" style="ellipse;whiteSpace=wrap;html=1;align=center;fillColor=#fff2cc;strokeColor=#d6b656;" vertex="1" parent="1">
          <mxGeometry x="-380" y="920" width="100" height="40" as="geometry" />
        </mxCell>
        <mxCell id="BNUVI51xKu-enzcr6GFZ-116" value="&lt;span style=&quot;border-bottom: 1px dotted&quot;&gt;&lt;font style=&quot;font-size: 18px;&quot;&gt;userId&lt;/font&gt;&lt;/span&gt;" style="ellipse;whiteSpace=wrap;html=1;align=center;fillColor=#fff2cc;strokeColor=#d6b656;" vertex="1" parent="1">
          <mxGeometry x="-140" y="910" width="100" height="40" as="geometry" />
        </mxCell>
        <mxCell id="BNUVI51xKu-enzcr6GFZ-118" value="" style="endArrow=none;html=1;rounded=0;exitX=0.5;exitY=0;exitDx=0;exitDy=0;entryX=0.5;entryY=1;entryDx=0;entryDy=0;" edge="1" parent="1" source="BNUVI51xKu-enzcr6GFZ-111" target="BNUVI51xKu-enzcr6GFZ-108">
          <mxGeometry relative="1" as="geometry">
            <mxPoint x="-440" y="630" as="sourcePoint" />
            <mxPoint x="-280" y="630" as="targetPoint" />
            <Array as="points">
              <mxPoint x="-480" y="760" />
            </Array>
          </mxGeometry>
        </mxCell>
        <mxCell id="BNUVI51xKu-enzcr6GFZ-119" value="" style="endArrow=none;html=1;rounded=0;exitX=1;exitY=0;exitDx=0;exitDy=0;entryX=0.5;entryY=1;entryDx=0;entryDy=0;" edge="1" parent="1" source="BNUVI51xKu-enzcr6GFZ-112" target="BNUVI51xKu-enzcr6GFZ-108">
          <mxGeometry relative="1" as="geometry">
            <mxPoint x="-410" y="750" as="sourcePoint" />
            <mxPoint x="-290" y="750" as="targetPoint" />
            <Array as="points">
              <mxPoint x="-370" y="810" />
            </Array>
          </mxGeometry>
        </mxCell>
        <mxCell id="BNUVI51xKu-enzcr6GFZ-120" value="" style="endArrow=none;html=1;rounded=0;exitX=0.663;exitY=0.105;exitDx=0;exitDy=0;exitPerimeter=0;" edge="1" parent="1" source="BNUVI51xKu-enzcr6GFZ-115">
          <mxGeometry relative="1" as="geometry">
            <mxPoint x="-425" y="826" as="sourcePoint" />
            <mxPoint x="-250" y="770" as="targetPoint" />
            <Array as="points">
              <mxPoint x="-300" y="850" />
            </Array>
          </mxGeometry>
        </mxCell>
        <mxCell id="BNUVI51xKu-enzcr6GFZ-121" value="" style="endArrow=none;html=1;rounded=0;exitX=0;exitY=0;exitDx=0;exitDy=0;entryX=0.5;entryY=1;entryDx=0;entryDy=0;" edge="1" parent="1" source="BNUVI51xKu-enzcr6GFZ-114" target="BNUVI51xKu-enzcr6GFZ-108">
          <mxGeometry relative="1" as="geometry">
            <mxPoint x="-324" y="894" as="sourcePoint" />
            <mxPoint x="-265" y="770" as="targetPoint" />
          </mxGeometry>
        </mxCell>
        <mxCell id="BNUVI51xKu-enzcr6GFZ-122" value="" style="endArrow=none;html=1;rounded=0;exitX=0.5;exitY=0;exitDx=0;exitDy=0;entryX=0.5;entryY=1;entryDx=0;entryDy=0;" edge="1" parent="1" source="BNUVI51xKu-enzcr6GFZ-116" target="BNUVI51xKu-enzcr6GFZ-108">
          <mxGeometry relative="1" as="geometry">
            <mxPoint x="-200" y="876" as="sourcePoint" />
            <mxPoint x="-210" y="780" as="targetPoint" />
            <Array as="points">
              <mxPoint x="-130" y="830" />
            </Array>
          </mxGeometry>
        </mxCell>
        <mxCell id="BNUVI51xKu-enzcr6GFZ-123" value="&lt;font style=&quot;font-size: 21px;&quot;&gt;Has&lt;/font&gt;" style="shape=rhombus;perimeter=rhombusPerimeter;whiteSpace=wrap;html=1;align=center;fillColor=#dae8fc;strokeColor=#6c8ebf;" vertex="1" parent="1">
          <mxGeometry x="-30" y="700" width="120" height="60" as="geometry" />
        </mxCell>
        <mxCell id="BNUVI51xKu-enzcr6GFZ-124" value="" style="shape=link;html=1;rounded=0;exitX=1;exitY=0.25;exitDx=0;exitDy=0;entryX=0;entryY=0.5;entryDx=0;entryDy=0;" edge="1" parent="1" source="BNUVI51xKu-enzcr6GFZ-108" target="BNUVI51xKu-enzcr6GFZ-123">
          <mxGeometry relative="1" as="geometry">
            <mxPoint x="-440" y="620" as="sourcePoint" />
            <mxPoint x="-280" y="620" as="targetPoint" />
          </mxGeometry>
        </mxCell>
        <mxCell id="BNUVI51xKu-enzcr6GFZ-125" value="N" style="resizable=0;html=1;whiteSpace=wrap;align=right;verticalAlign=bottom;" connectable="0" vertex="1" parent="BNUVI51xKu-enzcr6GFZ-124">
          <mxGeometry x="1" relative="1" as="geometry" />
        </mxCell>
        <mxCell id="BNUVI51xKu-enzcr6GFZ-126" value="" style="endArrow=none;html=1;rounded=0;exitX=0.25;exitY=1;exitDx=0;exitDy=0;entryX=1;entryY=0.5;entryDx=0;entryDy=0;" edge="1" parent="1" source="BNUVI51xKu-enzcr6GFZ-44" target="BNUVI51xKu-enzcr6GFZ-123">
          <mxGeometry relative="1" as="geometry">
            <mxPoint x="160" y="760" as="sourcePoint" />
            <mxPoint x="-280" y="620" as="targetPoint" />
          </mxGeometry>
        </mxCell>
        <mxCell id="BNUVI51xKu-enzcr6GFZ-127" value="N" style="resizable=0;html=1;whiteSpace=wrap;align=right;verticalAlign=bottom;" connectable="0" vertex="1" parent="BNUVI51xKu-enzcr6GFZ-126">
          <mxGeometry x="1" relative="1" as="geometry" />
        </mxCell>
        <mxCell id="BNUVI51xKu-enzcr6GFZ-128" value="&lt;font style=&quot;font-size: 20px;&quot;&gt;IS&lt;/font&gt;" style="shape=rhombus;perimeter=rhombusPerimeter;whiteSpace=wrap;html=1;align=center;fillColor=#dae8fc;strokeColor=#6c8ebf;" vertex="1" parent="1">
          <mxGeometry x="-260" y="520" width="120" height="60" as="geometry" />
        </mxCell>
        <mxCell id="BNUVI51xKu-enzcr6GFZ-130" value="" style="endArrow=none;html=1;rounded=0;entryX=0.75;entryY=1;entryDx=0;entryDy=0;exitX=0.5;exitY=0;exitDx=0;exitDy=0;" edge="1" parent="1" source="BNUVI51xKu-enzcr6GFZ-128" target="BNUVI51xKu-enzcr6GFZ-59">
          <mxGeometry relative="1" as="geometry">
            <mxPoint x="-440" y="620" as="sourcePoint" />
            <mxPoint x="-280" y="620" as="targetPoint" />
          </mxGeometry>
        </mxCell>
        <mxCell id="BNUVI51xKu-enzcr6GFZ-131" value="1" style="resizable=0;html=1;whiteSpace=wrap;align=right;verticalAlign=bottom;" connectable="0" vertex="1" parent="BNUVI51xKu-enzcr6GFZ-130">
          <mxGeometry x="1" relative="1" as="geometry" />
        </mxCell>
        <mxCell id="BNUVI51xKu-enzcr6GFZ-132" value="" style="shape=link;html=1;rounded=0;entryX=0.5;entryY=1;entryDx=0;entryDy=0;exitX=0.5;exitY=0;exitDx=0;exitDy=0;" edge="1" parent="1" source="BNUVI51xKu-enzcr6GFZ-108" target="BNUVI51xKu-enzcr6GFZ-128">
          <mxGeometry relative="1" as="geometry">
            <mxPoint x="-440" y="620" as="sourcePoint" />
            <mxPoint x="-280" y="620" as="targetPoint" />
          </mxGeometry>
        </mxCell>
        <mxCell id="BNUVI51xKu-enzcr6GFZ-133" value="N" style="resizable=0;html=1;whiteSpace=wrap;align=right;verticalAlign=bottom;" connectable="0" vertex="1" parent="BNUVI51xKu-enzcr6GFZ-132">
          <mxGeometry x="1" relative="1" as="geometry" />
        </mxCell>
        <mxCell id="BNUVI51xKu-enzcr6GFZ-136" value="&lt;font style=&quot;font-size: 18px;&quot;&gt;Instructor&lt;/font&gt;" style="rounded=1;arcSize=10;whiteSpace=wrap;html=1;align=center;fillColor=#f8cecc;strokeColor=#b85450;" vertex="1" parent="1">
          <mxGeometry x="-190" y="-320" width="100" height="40" as="geometry" />
        </mxCell>
        <mxCell id="BNUVI51xKu-enzcr6GFZ-137" value="&lt;font style=&quot;font-size: 18px;&quot;&gt;Courses&lt;/font&gt;" style="rounded=1;arcSize=10;whiteSpace=wrap;html=1;align=center;fillColor=#f8cecc;strokeColor=#b85450;" vertex="1" parent="1">
          <mxGeometry x="-715" y="-700" width="100" height="40" as="geometry" />
        </mxCell>
        <mxCell id="BNUVI51xKu-enzcr6GFZ-138" value="&lt;font style=&quot;font-size: 17px;&quot;&gt;Crs_Id&lt;/font&gt;" style="ellipse;whiteSpace=wrap;html=1;align=center;fontStyle=4;fillColor=#fff2cc;strokeColor=#d6b656;" vertex="1" parent="1">
          <mxGeometry x="-870" y="-840" width="100" height="40" as="geometry" />
        </mxCell>
        <mxCell id="BNUVI51xKu-enzcr6GFZ-139" value="&lt;span style=&quot;font-size: 20px;&quot;&gt;Crs_Name&lt;/span&gt;" style="ellipse;whiteSpace=wrap;html=1;align=center;fillColor=#fff2cc;strokeColor=#d6b656;" vertex="1" parent="1">
          <mxGeometry x="-715" y="-840" width="100" height="40" as="geometry" />
        </mxCell>
        <mxCell id="BNUVI51xKu-enzcr6GFZ-140" value="&lt;span style=&quot;font-size: 20px;&quot;&gt;isactive&lt;/span&gt;" style="ellipse;whiteSpace=wrap;html=1;align=center;fillColor=#fff2cc;strokeColor=#d6b656;" vertex="1" parent="1">
          <mxGeometry x="-390" y="-830" width="100" height="40" as="geometry" />
        </mxCell>
        <mxCell id="BNUVI51xKu-enzcr6GFZ-141" value="&lt;span style=&quot;font-size: 20px;&quot;&gt;Crs_period&lt;/span&gt;" style="ellipse;whiteSpace=wrap;html=1;align=center;fillColor=#fff2cc;strokeColor=#d6b656;" vertex="1" parent="1">
          <mxGeometry x="-535" y="-840" width="100" height="40" as="geometry" />
        </mxCell>
        <mxCell id="BNUVI51xKu-enzcr6GFZ-142" value="&lt;span style=&quot;border-bottom: 1px dotted&quot;&gt;&lt;font style=&quot;font-size: 18px;&quot;&gt;ins_id&lt;/font&gt;&lt;/span&gt;" style="ellipse;whiteSpace=wrap;html=1;align=center;fillColor=#fff2cc;strokeColor=#d6b656;" vertex="1" parent="1">
          <mxGeometry x="-980" y="-770" width="100" height="40" as="geometry" />
        </mxCell>
        <mxCell id="BNUVI51xKu-enzcr6GFZ-143" value="" style="endArrow=none;html=1;rounded=0;entryX=0.25;entryY=0;entryDx=0;entryDy=0;exitX=0.5;exitY=1;exitDx=0;exitDy=0;" edge="1" parent="1" source="BNUVI51xKu-enzcr6GFZ-138" target="BNUVI51xKu-enzcr6GFZ-137">
          <mxGeometry relative="1" as="geometry">
            <mxPoint x="-855" y="-780" as="sourcePoint" />
            <mxPoint x="-924.9999999999995" y="-489.9999999999998" as="targetPoint" />
          </mxGeometry>
        </mxCell>
        <mxCell id="BNUVI51xKu-enzcr6GFZ-144" value="" style="endArrow=none;html=1;rounded=0;entryX=0.5;entryY=0;entryDx=0;entryDy=0;exitX=0.5;exitY=1;exitDx=0;exitDy=0;" edge="1" parent="1" source="BNUVI51xKu-enzcr6GFZ-139" target="BNUVI51xKu-enzcr6GFZ-137">
          <mxGeometry relative="1" as="geometry">
            <mxPoint x="-830" y="-746" as="sourcePoint" />
            <mxPoint x="-680" y="-690" as="targetPoint" />
            <Array as="points">
              <mxPoint x="-665" y="-770" />
            </Array>
          </mxGeometry>
        </mxCell>
        <mxCell id="BNUVI51xKu-enzcr6GFZ-145" value="" style="endArrow=none;html=1;rounded=0;entryX=1;entryY=0.25;entryDx=0;entryDy=0;exitX=0.303;exitY=0.883;exitDx=0;exitDy=0;exitPerimeter=0;" edge="1" parent="1" source="BNUVI51xKu-enzcr6GFZ-141" target="BNUVI51xKu-enzcr6GFZ-137">
          <mxGeometry relative="1" as="geometry">
            <mxPoint x="-655" y="-790" as="sourcePoint" />
            <mxPoint x="-655" y="-690" as="targetPoint" />
            <Array as="points">
              <mxPoint x="-520" y="-750" />
            </Array>
          </mxGeometry>
        </mxCell>
        <mxCell id="BNUVI51xKu-enzcr6GFZ-146" value="" style="endArrow=none;html=1;rounded=0;entryX=1;entryY=0.5;entryDx=0;entryDy=0;exitX=0.5;exitY=1;exitDx=0;exitDy=0;" edge="1" parent="1" source="BNUVI51xKu-enzcr6GFZ-140" target="BNUVI51xKu-enzcr6GFZ-137">
          <mxGeometry relative="1" as="geometry">
            <mxPoint x="-495" y="-795" as="sourcePoint" />
            <mxPoint x="-605" y="-680" as="targetPoint" />
            <Array as="points">
              <mxPoint x="-390" y="-720" />
            </Array>
          </mxGeometry>
        </mxCell>
        <mxCell id="BNUVI51xKu-enzcr6GFZ-147" value="" style="endArrow=none;html=1;rounded=0;entryX=0;entryY=0.25;entryDx=0;entryDy=0;exitX=0.5;exitY=0;exitDx=0;exitDy=0;" edge="1" parent="1" source="BNUVI51xKu-enzcr6GFZ-142" target="BNUVI51xKu-enzcr6GFZ-137">
          <mxGeometry relative="1" as="geometry">
            <mxPoint x="-405" y="-710" as="sourcePoint" />
            <mxPoint x="-605" y="-670" as="targetPoint" />
          </mxGeometry>
        </mxCell>
        <mxCell id="BNUVI51xKu-enzcr6GFZ-148" value="&lt;span style=&quot;font-size: 19px;&quot;&gt;HAS&lt;/span&gt;" style="shape=rhombus;perimeter=rhombusPerimeter;whiteSpace=wrap;html=1;align=center;fillColor=#dae8fc;strokeColor=#6c8ebf;" vertex="1" parent="1">
          <mxGeometry x="-410" y="-500" width="120" height="60" as="geometry" />
        </mxCell>
        <mxCell id="BNUVI51xKu-enzcr6GFZ-151" value="" style="shape=link;html=1;rounded=0;entryX=0.5;entryY=1;entryDx=0;entryDy=0;" edge="1" parent="1" source="BNUVI51xKu-enzcr6GFZ-148" target="BNUVI51xKu-enzcr6GFZ-137">
          <mxGeometry relative="1" as="geometry">
            <mxPoint x="-360" y="-190" as="sourcePoint" />
            <mxPoint x="-200" y="-190" as="targetPoint" />
          </mxGeometry>
        </mxCell>
        <mxCell id="BNUVI51xKu-enzcr6GFZ-152" value="N" style="resizable=0;html=1;whiteSpace=wrap;align=right;verticalAlign=bottom;" connectable="0" vertex="1" parent="BNUVI51xKu-enzcr6GFZ-151">
          <mxGeometry x="1" relative="1" as="geometry" />
        </mxCell>
        <mxCell id="BNUVI51xKu-enzcr6GFZ-153" value="" style="endArrow=none;html=1;rounded=0;entryX=0;entryY=1;entryDx=0;entryDy=0;" edge="1" parent="1" source="BNUVI51xKu-enzcr6GFZ-136" target="BNUVI51xKu-enzcr6GFZ-148">
          <mxGeometry relative="1" as="geometry">
            <mxPoint x="-360" y="-190" as="sourcePoint" />
            <mxPoint x="50" y="-310" as="targetPoint" />
          </mxGeometry>
        </mxCell>
        <mxCell id="BNUVI51xKu-enzcr6GFZ-154" value="1" style="resizable=0;html=1;whiteSpace=wrap;align=right;verticalAlign=bottom;" connectable="0" vertex="1" parent="BNUVI51xKu-enzcr6GFZ-153">
          <mxGeometry x="1" relative="1" as="geometry" />
        </mxCell>
        <mxCell id="BNUVI51xKu-enzcr6GFZ-157" value="&lt;span style=&quot;font-size: 23px;&quot;&gt;Student_Course&lt;/span&gt;" style="whiteSpace=wrap;html=1;align=center;fillColor=#f8cecc;strokeColor=#b85450;" vertex="1" parent="1">
          <mxGeometry x="-1280" y="250" width="190" height="40" as="geometry" />
        </mxCell>
        <mxCell id="BNUVI51xKu-enzcr6GFZ-158" value="&lt;span style=&quot;font-size: 17px;&quot;&gt;Crs_Id, StudentId&lt;/span&gt;" style="ellipse;whiteSpace=wrap;html=1;align=center;fontStyle=4;fillColor=#fff2cc;strokeColor=#d6b656;" vertex="1" parent="1">
          <mxGeometry x="-1640" y="340" width="190" height="40" as="geometry" />
        </mxCell>
        <mxCell id="BNUVI51xKu-enzcr6GFZ-161" value="&lt;span style=&quot;border-bottom: 1px dotted&quot;&gt;&lt;font style=&quot;font-size: 18px;&quot;&gt;Crs_Id&lt;/font&gt;&lt;/span&gt;" style="ellipse;whiteSpace=wrap;html=1;align=center;fillColor=#fff2cc;strokeColor=#d6b656;" vertex="1" parent="1">
          <mxGeometry x="-1640" y="420" width="100" height="40" as="geometry" />
        </mxCell>
        <mxCell id="BNUVI51xKu-enzcr6GFZ-162" value="&lt;span style=&quot;border-bottom: 1px dotted&quot;&gt;&lt;font style=&quot;font-size: 18px;&quot;&gt;StudentId&lt;/font&gt;&lt;/span&gt;" style="ellipse;whiteSpace=wrap;html=1;align=center;fillColor=#fff2cc;strokeColor=#d6b656;" vertex="1" parent="1">
          <mxGeometry x="-1640" y="510" width="100" height="40" as="geometry" />
        </mxCell>
        <mxCell id="BNUVI51xKu-enzcr6GFZ-166" value="&lt;span style=&quot;font-size: 20px;&quot;&gt;grade&lt;/span&gt;" style="ellipse;whiteSpace=wrap;html=1;align=center;fillColor=#fff2cc;strokeColor=#d6b656;" vertex="1" parent="1">
          <mxGeometry x="-1640" y="250" width="100" height="40" as="geometry" />
        </mxCell>
        <mxCell id="BNUVI51xKu-enzcr6GFZ-167" value="&lt;span style=&quot;font-size: 20px;&quot;&gt;isactive&lt;/span&gt;" style="ellipse;whiteSpace=wrap;html=1;align=center;fillColor=#fff2cc;strokeColor=#d6b656;" vertex="1" parent="1">
          <mxGeometry x="-1640" y="180" width="100" height="40" as="geometry" />
        </mxCell>
        <mxCell id="BNUVI51xKu-enzcr6GFZ-168" value="&lt;span style=&quot;font-size: 20px;&quot;&gt;EnrolledAt&lt;/span&gt;" style="ellipse;whiteSpace=wrap;html=1;align=center;fillColor=#fff2cc;strokeColor=#d6b656;" vertex="1" parent="1">
          <mxGeometry x="-1640" y="110" width="120" height="40" as="geometry" />
        </mxCell>
        <mxCell id="BNUVI51xKu-enzcr6GFZ-169" value="&lt;span style=&quot;font-size: 20px;&quot;&gt;ispassed&lt;/span&gt;" style="ellipse;whiteSpace=wrap;html=1;align=center;fillColor=#fff2cc;strokeColor=#d6b656;" vertex="1" parent="1">
          <mxGeometry x="-1640" y="40" width="120" height="40" as="geometry" />
        </mxCell>
        <mxCell id="BNUVI51xKu-enzcr6GFZ-170" value="" style="endArrow=none;html=1;rounded=0;exitX=0.75;exitY=0;exitDx=0;exitDy=0;entryX=1;entryY=0.5;entryDx=0;entryDy=0;" edge="1" parent="1" source="BNUVI51xKu-enzcr6GFZ-157" target="BNUVI51xKu-enzcr6GFZ-169">
          <mxGeometry width="50" height="50" relative="1" as="geometry">
            <mxPoint x="-206" y="309" as="sourcePoint" />
            <mxPoint x="-542" y="190" as="targetPoint" />
            <Array as="points">
              <mxPoint x="-1140" y="60" />
            </Array>
          </mxGeometry>
        </mxCell>
        <mxCell id="BNUVI51xKu-enzcr6GFZ-171" value="" style="endArrow=none;html=1;rounded=0;exitX=0.353;exitY=0.075;exitDx=0;exitDy=0;entryX=1;entryY=0.5;entryDx=0;entryDy=0;exitPerimeter=0;" edge="1" parent="1" source="BNUVI51xKu-enzcr6GFZ-157" target="BNUVI51xKu-enzcr6GFZ-168">
          <mxGeometry width="50" height="50" relative="1" as="geometry">
            <mxPoint x="-1127" y="260" as="sourcePoint" />
            <mxPoint x="-1090" y="150" as="targetPoint" />
            <Array as="points">
              <mxPoint x="-1213" y="140" />
            </Array>
          </mxGeometry>
        </mxCell>
        <mxCell id="BNUVI51xKu-enzcr6GFZ-172" value="" style="endArrow=none;html=1;rounded=0;entryX=1;entryY=0.5;entryDx=0;entryDy=0;exitX=0;exitY=0.25;exitDx=0;exitDy=0;" edge="1" parent="1" source="BNUVI51xKu-enzcr6GFZ-157" target="BNUVI51xKu-enzcr6GFZ-167">
          <mxGeometry width="50" height="50" relative="1" as="geometry">
            <mxPoint x="-1203" y="263" as="sourcePoint" />
            <mxPoint x="-1201" y="121" as="targetPoint" />
            <Array as="points">
              <mxPoint x="-1280" y="200" />
            </Array>
          </mxGeometry>
        </mxCell>
        <mxCell id="BNUVI51xKu-enzcr6GFZ-173" value="" style="endArrow=none;html=1;rounded=0;entryX=1;entryY=0.5;entryDx=0;entryDy=0;" edge="1" parent="1" source="BNUVI51xKu-enzcr6GFZ-157" target="BNUVI51xKu-enzcr6GFZ-166">
          <mxGeometry width="50" height="50" relative="1" as="geometry">
            <mxPoint x="-1270" y="270" as="sourcePoint" />
            <mxPoint x="-1385" y="164" as="targetPoint" />
          </mxGeometry>
        </mxCell>
        <mxCell id="BNUVI51xKu-enzcr6GFZ-174" value="" style="endArrow=none;html=1;rounded=0;entryX=1;entryY=0;entryDx=0;entryDy=0;exitX=0.153;exitY=0.875;exitDx=0;exitDy=0;exitPerimeter=0;" edge="1" parent="1" source="BNUVI51xKu-enzcr6GFZ-157" target="BNUVI51xKu-enzcr6GFZ-158">
          <mxGeometry width="50" height="50" relative="1" as="geometry">
            <mxPoint x="-1270" y="276" as="sourcePoint" />
            <mxPoint x="-1535" y="266" as="targetPoint" />
            <Array as="points">
              <mxPoint x="-1251" y="350" />
            </Array>
          </mxGeometry>
        </mxCell>
        <mxCell id="BNUVI51xKu-enzcr6GFZ-175" value="" style="endArrow=none;html=1;rounded=0;exitX=0.25;exitY=1;exitDx=0;exitDy=0;" edge="1" parent="1" source="BNUVI51xKu-enzcr6GFZ-157" target="BNUVI51xKu-enzcr6GFZ-161">
          <mxGeometry width="50" height="50" relative="1" as="geometry">
            <mxPoint x="-1241" y="295" as="sourcePoint" />
            <mxPoint x="-1448" y="416" as="targetPoint" />
            <Array as="points">
              <mxPoint x="-1240" y="440" />
            </Array>
          </mxGeometry>
        </mxCell>
        <mxCell id="BNUVI51xKu-enzcr6GFZ-176" value="" style="endArrow=none;html=1;rounded=0;exitX=0.75;exitY=1;exitDx=0;exitDy=0;" edge="1" parent="1" source="BNUVI51xKu-enzcr6GFZ-157" target="BNUVI51xKu-enzcr6GFZ-162">
          <mxGeometry width="50" height="50" relative="1" as="geometry">
            <mxPoint x="-1222" y="300" as="sourcePoint" />
            <mxPoint x="-1203" y="450" as="targetPoint" />
            <Array as="points">
              <mxPoint x="-1130" y="530" />
            </Array>
          </mxGeometry>
        </mxCell>
        <mxCell id="BNUVI51xKu-enzcr6GFZ-177" value="&lt;font style=&quot;font-size: 20px;&quot;&gt;has&lt;/font&gt;" style="shape=rhombus;perimeter=rhombusPerimeter;whiteSpace=wrap;html=1;align=center;fillColor=#dae8fc;strokeColor=#6c8ebf;" vertex="1" parent="1">
          <mxGeometry x="-1010" y="-190" width="120" height="60" as="geometry" />
        </mxCell>
        <mxCell id="BNUVI51xKu-enzcr6GFZ-178" value="" style="shape=link;html=1;rounded=0;exitX=0.5;exitY=0;exitDx=0;exitDy=0;entryX=0;entryY=0.75;entryDx=0;entryDy=0;" edge="1" parent="1" source="BNUVI51xKu-enzcr6GFZ-177" target="BNUVI51xKu-enzcr6GFZ-137">
          <mxGeometry relative="1" as="geometry">
            <mxPoint x="-640" y="-220" as="sourcePoint" />
            <mxPoint x="-480" y="-220" as="targetPoint" />
          </mxGeometry>
        </mxCell>
        <mxCell id="BNUVI51xKu-enzcr6GFZ-179" value="M" style="resizable=0;html=1;whiteSpace=wrap;align=left;verticalAlign=bottom;" connectable="0" vertex="1" parent="BNUVI51xKu-enzcr6GFZ-178">
          <mxGeometry x="-1" relative="1" as="geometry" />
        </mxCell>
        <mxCell id="BNUVI51xKu-enzcr6GFZ-180" value="N" style="resizable=0;html=1;whiteSpace=wrap;align=right;verticalAlign=bottom;" connectable="0" vertex="1" parent="BNUVI51xKu-enzcr6GFZ-178">
          <mxGeometry x="1" relative="1" as="geometry" />
        </mxCell>
        <mxCell id="BNUVI51xKu-enzcr6GFZ-181" value="" style="shape=link;html=1;rounded=0;exitX=1;exitY=0;exitDx=0;exitDy=0;entryX=0.5;entryY=1;entryDx=0;entryDy=0;" edge="1" parent="1" source="BNUVI51xKu-enzcr6GFZ-157" target="BNUVI51xKu-enzcr6GFZ-177">
          <mxGeometry relative="1" as="geometry">
            <mxPoint x="-940" y="-180" as="sourcePoint" />
            <mxPoint x="-705" y="-660" as="targetPoint" />
          </mxGeometry>
        </mxCell>
        <mxCell id="BNUVI51xKu-enzcr6GFZ-182" value="M" style="resizable=0;html=1;whiteSpace=wrap;align=left;verticalAlign=bottom;" connectable="0" vertex="1" parent="BNUVI51xKu-enzcr6GFZ-181">
          <mxGeometry x="-1" relative="1" as="geometry" />
        </mxCell>
        <mxCell id="BNUVI51xKu-enzcr6GFZ-183" value="N" style="resizable=0;html=1;whiteSpace=wrap;align=right;verticalAlign=bottom;" connectable="0" vertex="1" parent="BNUVI51xKu-enzcr6GFZ-181">
          <mxGeometry x="1" relative="1" as="geometry" />
        </mxCell>
        <mxCell id="BNUVI51xKu-enzcr6GFZ-186" value="&lt;font style=&quot;font-size: 21px;&quot;&gt;HAS&lt;/font&gt;" style="shape=rhombus;perimeter=rhombusPerimeter;whiteSpace=wrap;html=1;align=center;fillColor=#dae8fc;strokeColor=#6c8ebf;" vertex="1" parent="1">
          <mxGeometry x="-1045" y="510" width="120" height="60" as="geometry" />
        </mxCell>
        <mxCell id="BNUVI51xKu-enzcr6GFZ-187" value="" style="shape=link;html=1;rounded=0;entryX=0.5;entryY=0;entryDx=0;entryDy=0;exitX=0.75;exitY=1;exitDx=0;exitDy=0;" edge="1" parent="1" source="BNUVI51xKu-enzcr6GFZ-157" target="BNUVI51xKu-enzcr6GFZ-186">
          <mxGeometry relative="1" as="geometry">
            <mxPoint x="-640" y="250" as="sourcePoint" />
            <mxPoint x="-480" y="250" as="targetPoint" />
          </mxGeometry>
        </mxCell>
        <mxCell id="BNUVI51xKu-enzcr6GFZ-188" value="M" style="resizable=0;html=1;whiteSpace=wrap;align=left;verticalAlign=bottom;" connectable="0" vertex="1" parent="BNUVI51xKu-enzcr6GFZ-187">
          <mxGeometry x="-1" relative="1" as="geometry" />
        </mxCell>
        <mxCell id="BNUVI51xKu-enzcr6GFZ-189" value="N" style="resizable=0;html=1;whiteSpace=wrap;align=right;verticalAlign=bottom;" connectable="0" vertex="1" parent="BNUVI51xKu-enzcr6GFZ-187">
          <mxGeometry x="1" relative="1" as="geometry" />
        </mxCell>
        <mxCell id="BNUVI51xKu-enzcr6GFZ-190" value="" style="shape=link;html=1;rounded=0;" edge="1" parent="1" source="BNUVI51xKu-enzcr6GFZ-186" target="BNUVI51xKu-enzcr6GFZ-108">
          <mxGeometry relative="1" as="geometry">
            <mxPoint x="-1127" y="300" as="sourcePoint" />
            <mxPoint x="-975" y="520" as="targetPoint" />
          </mxGeometry>
        </mxCell>
        <mxCell id="BNUVI51xKu-enzcr6GFZ-191" value="M" style="resizable=0;html=1;whiteSpace=wrap;align=left;verticalAlign=bottom;" connectable="0" vertex="1" parent="BNUVI51xKu-enzcr6GFZ-190">
          <mxGeometry x="-1" relative="1" as="geometry" />
        </mxCell>
        <mxCell id="BNUVI51xKu-enzcr6GFZ-192" value="N" style="resizable=0;html=1;whiteSpace=wrap;align=right;verticalAlign=bottom;" connectable="0" vertex="1" parent="BNUVI51xKu-enzcr6GFZ-190">
          <mxGeometry x="1" relative="1" as="geometry" />
        </mxCell>
        <mxCell id="BNUVI51xKu-enzcr6GFZ-196" value="&lt;font style=&quot;font-size: 18px;&quot;&gt;Topic&lt;/font&gt;" style="rounded=1;arcSize=10;whiteSpace=wrap;html=1;align=center;fillColor=#f8cecc;strokeColor=#b85450;" vertex="1" parent="1">
          <mxGeometry x="-1525" y="-680" width="100" height="40" as="geometry" />
        </mxCell>
        <mxCell id="BNUVI51xKu-enzcr6GFZ-197" value="&lt;font style=&quot;font-size: 17px;&quot;&gt;topic_id&lt;/font&gt;" style="ellipse;whiteSpace=wrap;html=1;align=center;fontStyle=4;fillColor=#fff2cc;strokeColor=#d6b656;" vertex="1" parent="1">
          <mxGeometry x="-1660" y="-920" width="100" height="40" as="geometry" />
        </mxCell>
        <mxCell id="BNUVI51xKu-enzcr6GFZ-198" value="&lt;span style=&quot;font-size: 20px;&quot;&gt;topic_name&lt;/span&gt;" style="ellipse;whiteSpace=wrap;html=1;align=center;fillColor=#fff2cc;strokeColor=#d6b656;" vertex="1" parent="1">
          <mxGeometry x="-1540" y="-920" width="100" height="40" as="geometry" />
        </mxCell>
        <mxCell id="BNUVI51xKu-enzcr6GFZ-199" value="&lt;span style=&quot;font-size: 20px;&quot;&gt;descrtption&lt;/span&gt;" style="ellipse;whiteSpace=wrap;html=1;align=center;fillColor=#fff2cc;strokeColor=#d6b656;" vertex="1" parent="1">
          <mxGeometry x="-1410" y="-920" width="100" height="40" as="geometry" />
        </mxCell>
        <mxCell id="BNUVI51xKu-enzcr6GFZ-200" value="&lt;span style=&quot;font-size: 20px;&quot;&gt;isactive&lt;/span&gt;" style="ellipse;whiteSpace=wrap;html=1;align=center;fillColor=#fff2cc;strokeColor=#d6b656;" vertex="1" parent="1">
          <mxGeometry x="-1290" y="-920" width="100" height="40" as="geometry" />
        </mxCell>
        <mxCell id="BNUVI51xKu-enzcr6GFZ-204" value="&lt;span style=&quot;border-bottom: 1px dotted&quot;&gt;&lt;font style=&quot;font-size: 18px;&quot;&gt;Crs_id&lt;/font&gt;&lt;/span&gt;" style="ellipse;whiteSpace=wrap;html=1;align=center;fillColor=#fff2cc;strokeColor=#d6b656;" vertex="1" parent="1">
          <mxGeometry x="-1160" y="-920" width="100" height="40" as="geometry" />
        </mxCell>
        <mxCell id="BNUVI51xKu-enzcr6GFZ-205" value="" style="endArrow=none;html=1;rounded=0;entryX=0.5;entryY=0;entryDx=0;entryDy=0;exitX=0.5;exitY=1;exitDx=0;exitDy=0;" edge="1" parent="1" source="BNUVI51xKu-enzcr6GFZ-197" target="BNUVI51xKu-enzcr6GFZ-196">
          <mxGeometry relative="1" as="geometry">
            <mxPoint x="-815" y="-760" as="sourcePoint" />
            <mxPoint x="-680" y="-690" as="targetPoint" />
            <Array as="points">
              <mxPoint x="-1610" y="-680" />
            </Array>
          </mxGeometry>
        </mxCell>
        <mxCell id="BNUVI51xKu-enzcr6GFZ-206" value="" style="endArrow=none;html=1;rounded=0;exitX=0.5;exitY=1;exitDx=0;exitDy=0;" edge="1" parent="1" source="BNUVI51xKu-enzcr6GFZ-198">
          <mxGeometry relative="1" as="geometry">
            <mxPoint x="-1570" y="-780" as="sourcePoint" />
            <mxPoint x="-1490" y="-680" as="targetPoint" />
          </mxGeometry>
        </mxCell>
        <mxCell id="BNUVI51xKu-enzcr6GFZ-207" value="" style="endArrow=none;html=1;rounded=0;" edge="1" parent="1" source="BNUVI51xKu-enzcr6GFZ-199" target="BNUVI51xKu-enzcr6GFZ-196">
          <mxGeometry relative="1" as="geometry">
            <mxPoint x="-1450" y="-840" as="sourcePoint" />
            <mxPoint x="-1440" y="-670" as="targetPoint" />
          </mxGeometry>
        </mxCell>
        <mxCell id="BNUVI51xKu-enzcr6GFZ-208" value="" style="endArrow=none;html=1;rounded=0;exitX=0.5;exitY=1;exitDx=0;exitDy=0;entryX=1;entryY=0.5;entryDx=0;entryDy=0;" edge="1" parent="1" source="BNUVI51xKu-enzcr6GFZ-204" target="BNUVI51xKu-enzcr6GFZ-196">
          <mxGeometry relative="1" as="geometry">
            <mxPoint x="-1365" y="-771" as="sourcePoint" />
            <mxPoint x="-1449" y="-670" as="targetPoint" />
            <Array as="points">
              <mxPoint x="-1160" y="-750" />
            </Array>
          </mxGeometry>
        </mxCell>
        <mxCell id="BNUVI51xKu-enzcr6GFZ-210" value="" style="endArrow=none;html=1;rounded=0;exitX=0.5;exitY=1;exitDx=0;exitDy=0;entryX=0.75;entryY=0;entryDx=0;entryDy=0;" edge="1" parent="1" source="BNUVI51xKu-enzcr6GFZ-200" target="BNUVI51xKu-enzcr6GFZ-196">
          <mxGeometry relative="1" as="geometry">
            <mxPoint x="-1190" y="-680" as="sourcePoint" />
            <mxPoint x="-1415" y="-650" as="targetPoint" />
            <Array as="points">
              <mxPoint x="-1280" y="-770" />
            </Array>
          </mxGeometry>
        </mxCell>
        <mxCell id="BNUVI51xKu-enzcr6GFZ-211" value="&lt;font style=&quot;font-size: 21px;&quot;&gt;has&lt;/font&gt;" style="shape=rhombus;perimeter=rhombusPerimeter;whiteSpace=wrap;html=1;align=center;fillColor=#dae8fc;strokeColor=#6c8ebf;" vertex="1" parent="1">
          <mxGeometry x="-1210" y="-690" width="120" height="60" as="geometry" />
        </mxCell>
        <mxCell id="BNUVI51xKu-enzcr6GFZ-214" value="" style="endArrow=none;html=1;rounded=0;exitX=1;exitY=0;exitDx=0;exitDy=0;entryX=0.25;entryY=1;entryDx=0;entryDy=0;" edge="1" parent="1" source="BNUVI51xKu-enzcr6GFZ-211" target="BNUVI51xKu-enzcr6GFZ-137">
          <mxGeometry relative="1" as="geometry">
            <mxPoint x="-640" y="-560" as="sourcePoint" />
            <mxPoint x="-480" y="-560" as="targetPoint" />
          </mxGeometry>
        </mxCell>
        <mxCell id="BNUVI51xKu-enzcr6GFZ-215" value="1" style="resizable=0;html=1;whiteSpace=wrap;align=right;verticalAlign=bottom;" connectable="0" vertex="1" parent="BNUVI51xKu-enzcr6GFZ-214">
          <mxGeometry x="1" relative="1" as="geometry" />
        </mxCell>
        <mxCell id="BNUVI51xKu-enzcr6GFZ-216" value="" style="shape=link;html=1;rounded=0;exitX=1;exitY=0.5;exitDx=0;exitDy=0;" edge="1" parent="1" source="BNUVI51xKu-enzcr6GFZ-196" target="BNUVI51xKu-enzcr6GFZ-211">
          <mxGeometry relative="1" as="geometry">
            <mxPoint x="-640" y="-560" as="sourcePoint" />
            <mxPoint x="-480" y="-560" as="targetPoint" />
          </mxGeometry>
        </mxCell>
        <mxCell id="BNUVI51xKu-enzcr6GFZ-217" value="N" style="resizable=0;html=1;whiteSpace=wrap;align=right;verticalAlign=bottom;" connectable="0" vertex="1" parent="BNUVI51xKu-enzcr6GFZ-216">
          <mxGeometry x="1" relative="1" as="geometry" />
        </mxCell>
        <mxCell id="BNUVI51xKu-enzcr6GFZ-218" value="&lt;font style=&quot;font-size: 18px;&quot;&gt;Exam&lt;/font&gt;" style="rounded=1;arcSize=10;whiteSpace=wrap;html=1;align=center;fillColor=#f8cecc;strokeColor=#b85450;" vertex="1" parent="1">
          <mxGeometry x="650" y="-710" width="100" height="40" as="geometry" />
        </mxCell>
        <mxCell id="BNUVI51xKu-enzcr6GFZ-219" value="&lt;font style=&quot;font-size: 17px;&quot;&gt;exam_id&lt;/font&gt;" style="ellipse;whiteSpace=wrap;html=1;align=center;fontStyle=4;fillColor=#fff2cc;strokeColor=#d6b656;" vertex="1" parent="1">
          <mxGeometry x="595" y="-950" width="100" height="40" as="geometry" />
        </mxCell>
        <mxCell id="BNUVI51xKu-enzcr6GFZ-220" value="&lt;span style=&quot;font-size: 20px;&quot;&gt;exam_name&lt;/span&gt;" style="ellipse;whiteSpace=wrap;html=1;align=center;fillColor=#fff2cc;strokeColor=#d6b656;" vertex="1" parent="1">
          <mxGeometry x="720" y="-950" width="100" height="40" as="geometry" />
        </mxCell>
        <mxCell id="BNUVI51xKu-enzcr6GFZ-221" value="&lt;span style=&quot;font-size: 20px;&quot;&gt;startTime&lt;/span&gt;" style="ellipse;whiteSpace=wrap;html=1;align=center;fillColor=#fff2cc;strokeColor=#d6b656;" vertex="1" parent="1">
          <mxGeometry x="1020" y="-890" width="100" height="40" as="geometry" />
        </mxCell>
        <mxCell id="BNUVI51xKu-enzcr6GFZ-222" value="&lt;span style=&quot;font-size: 20px;&quot;&gt;isactive&lt;/span&gt;" style="ellipse;whiteSpace=wrap;html=1;align=center;fillColor=#fff2cc;strokeColor=#d6b656;" vertex="1" parent="1">
          <mxGeometry x="1030" y="-720" width="100" height="40" as="geometry" />
        </mxCell>
        <mxCell id="BNUVI51xKu-enzcr6GFZ-223" value="&lt;span style=&quot;font-size: 20px;&quot;&gt;endTime&lt;/span&gt;" style="ellipse;whiteSpace=wrap;html=1;align=center;fillColor=#fff2cc;strokeColor=#d6b656;" vertex="1" parent="1">
          <mxGeometry x="1030" y="-810" width="100" height="40" as="geometry" />
        </mxCell>
        <mxCell id="BNUVI51xKu-enzcr6GFZ-225" value="&lt;span style=&quot;border-bottom: 1px dotted&quot;&gt;&lt;font style=&quot;font-size: 18px;&quot;&gt;ins_id&lt;/font&gt;&lt;/span&gt;" style="ellipse;whiteSpace=wrap;html=1;align=center;fillColor=#fff2cc;strokeColor=#d6b656;" vertex="1" parent="1">
          <mxGeometry x="1040" y="-650" width="100" height="40" as="geometry" />
        </mxCell>
        <mxCell id="BNUVI51xKu-enzcr6GFZ-226" value="&lt;span style=&quot;border-bottom: 1px dotted&quot;&gt;&lt;font style=&quot;font-size: 18px;&quot;&gt;Crs_Id&lt;/font&gt;&lt;/span&gt;" style="ellipse;whiteSpace=wrap;html=1;align=center;fillColor=#fff2cc;strokeColor=#d6b656;" vertex="1" parent="1">
          <mxGeometry x="850" y="-950" width="100" height="40" as="geometry" />
        </mxCell>
        <mxCell id="BNUVI51xKu-enzcr6GFZ-227" value="TotalMarks" style="ellipse;whiteSpace=wrap;html=1;align=center;dashed=1;fillColor=#fff2cc;strokeColor=#d6b656;" vertex="1" parent="1">
          <mxGeometry x="990" y="-950" width="100" height="40" as="geometry" />
        </mxCell>
        <mxCell id="BNUVI51xKu-enzcr6GFZ-229" value="&lt;span style=&quot;font-size: 20px;&quot;&gt;passedGrade&lt;/span&gt;" style="ellipse;whiteSpace=wrap;html=1;align=center;fillColor=#fff2cc;strokeColor=#d6b656;" vertex="1" parent="1">
          <mxGeometry x="425" y="-950" width="140" height="40" as="geometry" />
        </mxCell>
        <mxCell id="BNUVI51xKu-enzcr6GFZ-231" value="" style="endArrow=none;html=1;rounded=0;entryX=0;entryY=0;entryDx=0;entryDy=0;exitX=1;exitY=0.5;exitDx=0;exitDy=0;" edge="1" parent="1" source="BNUVI51xKu-enzcr6GFZ-218" target="BNUVI51xKu-enzcr6GFZ-222">
          <mxGeometry relative="1" as="geometry">
            <mxPoint x="750" y="-700" as="sourcePoint" />
            <mxPoint x="-605" y="-680" as="targetPoint" />
          </mxGeometry>
        </mxCell>
        <mxCell id="BNUVI51xKu-enzcr6GFZ-232" value="" style="endArrow=none;html=1;rounded=0;entryX=0;entryY=0.5;entryDx=0;entryDy=0;exitX=1;exitY=0.5;exitDx=0;exitDy=0;" edge="1" parent="1" source="BNUVI51xKu-enzcr6GFZ-218" target="BNUVI51xKu-enzcr6GFZ-225">
          <mxGeometry relative="1" as="geometry">
            <mxPoint x="710" y="-660" as="sourcePoint" />
            <mxPoint x="785" y="-514" as="targetPoint" />
          </mxGeometry>
        </mxCell>
        <mxCell id="BNUVI51xKu-enzcr6GFZ-233" value="" style="endArrow=none;html=1;rounded=0;entryX=0;entryY=1;entryDx=0;entryDy=0;exitX=0.5;exitY=0;exitDx=0;exitDy=0;" edge="1" parent="1" source="BNUVI51xKu-enzcr6GFZ-218" target="BNUVI51xKu-enzcr6GFZ-226">
          <mxGeometry relative="1" as="geometry">
            <mxPoint x="685" y="-660" as="sourcePoint" />
            <mxPoint x="635" y="-524" as="targetPoint" />
          </mxGeometry>
        </mxCell>
        <mxCell id="BNUVI51xKu-enzcr6GFZ-234" value="" style="endArrow=none;html=1;rounded=0;entryX=0;entryY=1;entryDx=0;entryDy=0;" edge="1" parent="1" source="BNUVI51xKu-enzcr6GFZ-218" target="BNUVI51xKu-enzcr6GFZ-227">
          <mxGeometry relative="1" as="geometry">
            <mxPoint x="685" y="-660" as="sourcePoint" />
            <mxPoint x="505" y="-534" as="targetPoint" />
          </mxGeometry>
        </mxCell>
        <mxCell id="BNUVI51xKu-enzcr6GFZ-235" value="" style="endArrow=none;html=1;rounded=0;entryX=0.5;entryY=1;entryDx=0;entryDy=0;" edge="1" parent="1" source="BNUVI51xKu-enzcr6GFZ-218" target="BNUVI51xKu-enzcr6GFZ-229">
          <mxGeometry relative="1" as="geometry">
            <mxPoint x="661" y="-660" as="sourcePoint" />
            <mxPoint x="325" y="-524" as="targetPoint" />
          </mxGeometry>
        </mxCell>
        <mxCell id="BNUVI51xKu-enzcr6GFZ-236" value="" style="endArrow=none;html=1;rounded=0;entryX=0.5;entryY=1;entryDx=0;entryDy=0;exitX=0.25;exitY=0;exitDx=0;exitDy=0;" edge="1" parent="1" source="BNUVI51xKu-enzcr6GFZ-218" target="BNUVI51xKu-enzcr6GFZ-219">
          <mxGeometry relative="1" as="geometry">
            <mxPoint x="700" y="-710" as="sourcePoint" />
            <mxPoint x="369" y="-676" as="targetPoint" />
          </mxGeometry>
        </mxCell>
        <mxCell id="BNUVI51xKu-enzcr6GFZ-237" value="" style="endArrow=none;html=1;rounded=0;exitX=0.25;exitY=0;exitDx=0;exitDy=0;" edge="1" parent="1" source="BNUVI51xKu-enzcr6GFZ-218">
          <mxGeometry relative="1" as="geometry">
            <mxPoint x="710" y="-700" as="sourcePoint" />
            <mxPoint x="770" y="-910" as="targetPoint" />
          </mxGeometry>
        </mxCell>
        <mxCell id="BNUVI51xKu-enzcr6GFZ-238" value="" style="endArrow=none;html=1;rounded=0;entryX=0;entryY=0;entryDx=0;entryDy=0;exitX=1;exitY=0;exitDx=0;exitDy=0;" edge="1" parent="1" source="BNUVI51xKu-enzcr6GFZ-218" target="BNUVI51xKu-enzcr6GFZ-221">
          <mxGeometry relative="1" as="geometry">
            <mxPoint x="760" y="-700" as="sourcePoint" />
            <mxPoint x="880" y="-870" as="targetPoint" />
          </mxGeometry>
        </mxCell>
        <mxCell id="BNUVI51xKu-enzcr6GFZ-239" value="" style="endArrow=none;html=1;rounded=0;entryX=0;entryY=0;entryDx=0;entryDy=0;exitX=1;exitY=0.25;exitDx=0;exitDy=0;" edge="1" parent="1" source="BNUVI51xKu-enzcr6GFZ-218" target="BNUVI51xKu-enzcr6GFZ-223">
          <mxGeometry relative="1" as="geometry">
            <mxPoint x="760" y="-710" as="sourcePoint" />
            <mxPoint x="915" y="-754" as="targetPoint" />
          </mxGeometry>
        </mxCell>
        <mxCell id="BNUVI51xKu-enzcr6GFZ-242" value="&lt;span style=&quot;font-size: 19px;&quot;&gt;HAS&lt;/span&gt;" style="shape=rhombus;perimeter=rhombusPerimeter;whiteSpace=wrap;html=1;align=center;fillColor=#dae8fc;strokeColor=#6c8ebf;" vertex="1" parent="1">
          <mxGeometry x="-30" y="-690" width="120" height="60" as="geometry" />
        </mxCell>
        <mxCell id="BNUVI51xKu-enzcr6GFZ-243" value="" style="shape=link;html=1;rounded=0;entryX=1;entryY=0.5;entryDx=0;entryDy=0;exitX=0.25;exitY=1;exitDx=0;exitDy=0;" edge="1" parent="1" source="BNUVI51xKu-enzcr6GFZ-218" target="BNUVI51xKu-enzcr6GFZ-242">
          <mxGeometry relative="1" as="geometry">
            <mxPoint x="620" y="-670" as="sourcePoint" />
            <mxPoint x="40" y="-510" as="targetPoint" />
          </mxGeometry>
        </mxCell>
        <mxCell id="BNUVI51xKu-enzcr6GFZ-244" value="N" style="resizable=0;html=1;whiteSpace=wrap;align=right;verticalAlign=bottom;" connectable="0" vertex="1" parent="BNUVI51xKu-enzcr6GFZ-243">
          <mxGeometry x="1" relative="1" as="geometry" />
        </mxCell>
        <mxCell id="BNUVI51xKu-enzcr6GFZ-247" value="" style="endArrow=none;html=1;rounded=0;" edge="1" parent="1" target="BNUVI51xKu-enzcr6GFZ-242">
          <mxGeometry relative="1" as="geometry">
            <mxPoint x="-620" y="-680" as="sourcePoint" />
            <mxPoint x="40" y="-510" as="targetPoint" />
          </mxGeometry>
        </mxCell>
        <mxCell id="BNUVI51xKu-enzcr6GFZ-248" value="1" style="resizable=0;html=1;whiteSpace=wrap;align=right;verticalAlign=bottom;" connectable="0" vertex="1" parent="BNUVI51xKu-enzcr6GFZ-247">
          <mxGeometry x="1" relative="1" as="geometry" />
        </mxCell>
        <mxCell id="BNUVI51xKu-enzcr6GFZ-249" value="&lt;span style=&quot;font-size: 19px;&quot;&gt;HAS&lt;/span&gt;" style="shape=rhombus;perimeter=rhombusPerimeter;whiteSpace=wrap;html=1;align=center;fillColor=#dae8fc;strokeColor=#6c8ebf;" vertex="1" parent="1">
          <mxGeometry x="190" y="-410" width="120" height="60" as="geometry" />
        </mxCell>
        <mxCell id="BNUVI51xKu-enzcr6GFZ-250" value="" style="endArrow=none;html=1;rounded=0;entryX=0.25;entryY=1;entryDx=0;entryDy=0;" edge="1" parent="1" source="BNUVI51xKu-enzcr6GFZ-249" target="BNUVI51xKu-enzcr6GFZ-218">
          <mxGeometry relative="1" as="geometry">
            <mxPoint x="-120" y="-570" as="sourcePoint" />
            <mxPoint x="40" y="-570" as="targetPoint" />
          </mxGeometry>
        </mxCell>
        <mxCell id="BNUVI51xKu-enzcr6GFZ-251" value="N" style="resizable=0;html=1;whiteSpace=wrap;align=right;verticalAlign=bottom;" connectable="0" vertex="1" parent="BNUVI51xKu-enzcr6GFZ-250">
          <mxGeometry x="1" relative="1" as="geometry" />
        </mxCell>
        <mxCell id="BNUVI51xKu-enzcr6GFZ-252" value="" style="endArrow=none;html=1;rounded=0;exitX=1;exitY=0.25;exitDx=0;exitDy=0;entryX=0;entryY=1;entryDx=0;entryDy=0;" edge="1" parent="1" source="BNUVI51xKu-enzcr6GFZ-136" target="BNUVI51xKu-enzcr6GFZ-249">
          <mxGeometry relative="1" as="geometry">
            <mxPoint x="-120" y="-570" as="sourcePoint" />
            <mxPoint x="40" y="-570" as="targetPoint" />
          </mxGeometry>
        </mxCell>
        <mxCell id="BNUVI51xKu-enzcr6GFZ-253" value="1" style="resizable=0;html=1;whiteSpace=wrap;align=right;verticalAlign=bottom;" connectable="0" vertex="1" parent="BNUVI51xKu-enzcr6GFZ-252">
          <mxGeometry x="1" relative="1" as="geometry" />
        </mxCell>
        <mxCell id="BNUVI51xKu-enzcr6GFZ-254" value="&lt;font style=&quot;font-size: 18px;&quot;&gt;Question&lt;/font&gt;" style="rounded=1;arcSize=10;whiteSpace=wrap;html=1;align=center;fillColor=#f8cecc;strokeColor=#b85450;" vertex="1" parent="1">
          <mxGeometry x="470" y="-1110" width="100" height="40" as="geometry" />
        </mxCell>
        <mxCell id="BNUVI51xKu-enzcr6GFZ-255" value="&lt;font style=&quot;font-size: 17px;&quot;&gt;ques_id&lt;/font&gt;" style="ellipse;whiteSpace=wrap;html=1;align=center;fontStyle=4;fillColor=#fff2cc;strokeColor=#d6b656;" vertex="1" parent="1">
          <mxGeometry x="350" y="-1360" width="100" height="40" as="geometry" />
        </mxCell>
        <mxCell id="BNUVI51xKu-enzcr6GFZ-256" value="&lt;span style=&quot;font-size: 20px;&quot;&gt;ques_type&lt;/span&gt;" style="ellipse;whiteSpace=wrap;html=1;align=center;fillColor=#fff2cc;strokeColor=#d6b656;" vertex="1" parent="1">
          <mxGeometry x="505" y="-1360" width="100" height="40" as="geometry" />
        </mxCell>
        <mxCell id="BNUVI51xKu-enzcr6GFZ-257" value="&lt;span style=&quot;font-size: 20px;&quot;&gt;ques_text&lt;/span&gt;" style="ellipse;whiteSpace=wrap;html=1;align=center;fillColor=#fff2cc;strokeColor=#d6b656;" vertex="1" parent="1">
          <mxGeometry x="200" y="-1320" width="100" height="40" as="geometry" />
        </mxCell>
        <mxCell id="BNUVI51xKu-enzcr6GFZ-258" value="&lt;span style=&quot;font-size: 20px;&quot;&gt;ques_score&lt;/span&gt;" style="ellipse;whiteSpace=wrap;html=1;align=center;fillColor=#fff2cc;strokeColor=#d6b656;" vertex="1" parent="1">
          <mxGeometry x="775" y="-1360" width="100" height="40" as="geometry" />
        </mxCell>
        <mxCell id="BNUVI51xKu-enzcr6GFZ-259" value="&lt;span style=&quot;font-size: 20px;&quot;&gt;isactive&lt;/span&gt;" style="ellipse;whiteSpace=wrap;html=1;align=center;fillColor=#fff2cc;strokeColor=#d6b656;" vertex="1" parent="1">
          <mxGeometry x="630" y="-1360" width="100" height="40" as="geometry" />
        </mxCell>
        <mxCell id="BNUVI51xKu-enzcr6GFZ-260" value="&lt;span style=&quot;border-bottom: 1px dotted&quot;&gt;&lt;font style=&quot;font-size: 18px;&quot;&gt;exam_id&lt;/font&gt;&lt;/span&gt;" style="ellipse;whiteSpace=wrap;html=1;align=center;fillColor=#fff2cc;strokeColor=#d6b656;" vertex="1" parent="1">
          <mxGeometry x="200" y="-1240" width="100" height="40" as="geometry" />
        </mxCell>
        <mxCell id="BNUVI51xKu-enzcr6GFZ-261" value="" style="endArrow=none;html=1;rounded=0;entryX=0.5;entryY=1;entryDx=0;entryDy=0;exitX=0.25;exitY=0;exitDx=0;exitDy=0;" edge="1" parent="1" source="BNUVI51xKu-enzcr6GFZ-254" target="BNUVI51xKu-enzcr6GFZ-260">
          <mxGeometry relative="1" as="geometry">
            <mxPoint x="980" y="-750" as="sourcePoint" />
            <mxPoint x="985" y="-936" as="targetPoint" />
            <Array as="points">
              <mxPoint x="320" y="-1120" />
            </Array>
          </mxGeometry>
        </mxCell>
        <mxCell id="BNUVI51xKu-enzcr6GFZ-262" value="" style="endArrow=none;html=1;rounded=0;exitX=0.25;exitY=0;exitDx=0;exitDy=0;entryX=1;entryY=1;entryDx=0;entryDy=0;" edge="1" parent="1" source="BNUVI51xKu-enzcr6GFZ-254" target="BNUVI51xKu-enzcr6GFZ-257">
          <mxGeometry relative="1" as="geometry">
            <mxPoint x="505" y="-1100" as="sourcePoint" />
            <mxPoint x="300" y="-1300" as="targetPoint" />
          </mxGeometry>
        </mxCell>
        <mxCell id="BNUVI51xKu-enzcr6GFZ-263" value="" style="endArrow=none;html=1;rounded=0;entryX=0.5;entryY=1;entryDx=0;entryDy=0;" edge="1" parent="1" target="BNUVI51xKu-enzcr6GFZ-255">
          <mxGeometry relative="1" as="geometry">
            <mxPoint x="520" y="-1110" as="sourcePoint" />
            <mxPoint x="335" y="-1244" as="targetPoint" />
          </mxGeometry>
        </mxCell>
        <mxCell id="BNUVI51xKu-enzcr6GFZ-264" value="" style="endArrow=none;html=1;rounded=0;entryX=0.5;entryY=1;entryDx=0;entryDy=0;exitX=0.75;exitY=0;exitDx=0;exitDy=0;" edge="1" parent="1" source="BNUVI51xKu-enzcr6GFZ-254" target="BNUVI51xKu-enzcr6GFZ-256">
          <mxGeometry relative="1" as="geometry">
            <mxPoint x="530" y="-1100" as="sourcePoint" />
            <mxPoint x="460" y="-1250" as="targetPoint" />
          </mxGeometry>
        </mxCell>
        <mxCell id="BNUVI51xKu-enzcr6GFZ-265" value="" style="endArrow=none;html=1;rounded=0;entryX=0.5;entryY=1;entryDx=0;entryDy=0;exitX=1;exitY=0.75;exitDx=0;exitDy=0;" edge="1" parent="1" source="BNUVI51xKu-enzcr6GFZ-254" target="BNUVI51xKu-enzcr6GFZ-258">
          <mxGeometry relative="1" as="geometry">
            <mxPoint x="555" y="-1100" as="sourcePoint" />
            <mxPoint x="640" y="-1280" as="targetPoint" />
            <Array as="points">
              <mxPoint x="790" y="-1220" />
            </Array>
          </mxGeometry>
        </mxCell>
        <mxCell id="BNUVI51xKu-enzcr6GFZ-266" value="" style="endArrow=none;html=1;rounded=0;entryX=0.5;entryY=1;entryDx=0;entryDy=0;exitX=1;exitY=0;exitDx=0;exitDy=0;" edge="1" parent="1" source="BNUVI51xKu-enzcr6GFZ-254" target="BNUVI51xKu-enzcr6GFZ-259">
          <mxGeometry relative="1" as="geometry">
            <mxPoint x="565" y="-1080" as="sourcePoint" />
            <mxPoint x="650" y="-1270" as="targetPoint" />
            <Array as="points">
              <mxPoint x="650" y="-1220" />
            </Array>
          </mxGeometry>
        </mxCell>
        <mxCell id="BNUVI51xKu-enzcr6GFZ-267" value="&lt;span style=&quot;font-size: 19px;&quot;&gt;HAS&lt;/span&gt;" style="shape=rhombus;perimeter=rhombusPerimeter;whiteSpace=wrap;html=1;align=center;fillColor=#dae8fc;strokeColor=#6c8ebf;" vertex="1" parent="1">
          <mxGeometry x="240" y="-890" width="120" height="60" as="geometry" />
        </mxCell>
        <mxCell id="BNUVI51xKu-enzcr6GFZ-268" value="" style="shape=link;html=1;rounded=0;exitX=0.5;exitY=1;exitDx=0;exitDy=0;entryX=0.5;entryY=0;entryDx=0;entryDy=0;" edge="1" parent="1" source="BNUVI51xKu-enzcr6GFZ-254" target="BNUVI51xKu-enzcr6GFZ-267">
          <mxGeometry relative="1" as="geometry">
            <mxPoint x="-120" y="-730" as="sourcePoint" />
            <mxPoint x="40" y="-730" as="targetPoint" />
          </mxGeometry>
        </mxCell>
        <mxCell id="BNUVI51xKu-enzcr6GFZ-269" value="N" style="resizable=0;html=1;whiteSpace=wrap;align=right;verticalAlign=bottom;" connectable="0" vertex="1" parent="BNUVI51xKu-enzcr6GFZ-268">
          <mxGeometry x="1" relative="1" as="geometry" />
        </mxCell>
        <mxCell id="BNUVI51xKu-enzcr6GFZ-270" value="" style="shape=link;html=1;rounded=0;entryX=0.25;entryY=0;entryDx=0;entryDy=0;" edge="1" parent="1" source="BNUVI51xKu-enzcr6GFZ-267" target="BNUVI51xKu-enzcr6GFZ-218">
          <mxGeometry relative="1" as="geometry">
            <mxPoint x="-120" y="-730" as="sourcePoint" />
            <mxPoint x="40" y="-730" as="targetPoint" />
          </mxGeometry>
        </mxCell>
        <mxCell id="BNUVI51xKu-enzcr6GFZ-271" value="1" style="resizable=0;html=1;whiteSpace=wrap;align=right;verticalAlign=bottom;" connectable="0" vertex="1" parent="BNUVI51xKu-enzcr6GFZ-270">
          <mxGeometry x="1" relative="1" as="geometry" />
        </mxCell>
        <mxCell id="BNUVI51xKu-enzcr6GFZ-275" value="&lt;font style=&quot;font-size: 18px;&quot;&gt;Choice&lt;/font&gt;" style="rounded=1;arcSize=10;whiteSpace=wrap;html=1;align=center;fillColor=#f8cecc;strokeColor=#b85450;" vertex="1" parent="1">
          <mxGeometry x="-450" y="-1329.57" width="100" height="40" as="geometry" />
        </mxCell>
        <mxCell id="BNUVI51xKu-enzcr6GFZ-277" value="&lt;font style=&quot;font-size: 17px;&quot;&gt;choice_id&lt;/font&gt;" style="ellipse;whiteSpace=wrap;html=1;align=center;fontStyle=4;fillColor=#fff2cc;strokeColor=#d6b656;" vertex="1" parent="1">
          <mxGeometry x="-715" y="-1420" width="100" height="40" as="geometry" />
        </mxCell>
        <mxCell id="BNUVI51xKu-enzcr6GFZ-278" value="&lt;span style=&quot;font-size: 20px;&quot;&gt;choice_text&lt;/span&gt;" style="ellipse;whiteSpace=wrap;html=1;align=center;fillColor=#fff2cc;strokeColor=#d6b656;" vertex="1" parent="1">
          <mxGeometry x="-720" y="-1329.57" width="100" height="40" as="geometry" />
        </mxCell>
        <mxCell id="BNUVI51xKu-enzcr6GFZ-279" value="&lt;span style=&quot;font-size: 20px;&quot;&gt;is_correct&lt;/span&gt;" style="ellipse;whiteSpace=wrap;html=1;align=center;fillColor=#fff2cc;strokeColor=#d6b656;" vertex="1" parent="1">
          <mxGeometry x="-720" y="-1269.5700000000002" width="130" height="40" as="geometry" />
        </mxCell>
        <mxCell id="BNUVI51xKu-enzcr6GFZ-280" value="&lt;span style=&quot;border-bottom: 1px dotted&quot;&gt;&lt;font style=&quot;font-size: 18px;&quot;&gt;ques_id&lt;/font&gt;&lt;/span&gt;" style="ellipse;whiteSpace=wrap;html=1;align=center;fillColor=#fff2cc;strokeColor=#d6b656;" vertex="1" parent="1">
          <mxGeometry x="-720" y="-1530" width="100" height="40" as="geometry" />
        </mxCell>
        <mxCell id="BNUVI51xKu-enzcr6GFZ-281" value="" style="endArrow=none;html=1;rounded=0;entryX=1;entryY=0.5;entryDx=0;entryDy=0;exitX=0;exitY=0.25;exitDx=0;exitDy=0;" edge="1" parent="1" source="BNUVI51xKu-enzcr6GFZ-275" target="BNUVI51xKu-enzcr6GFZ-280">
          <mxGeometry relative="1" as="geometry">
            <mxPoint x="-450" y="-1320" as="sourcePoint" />
            <mxPoint x="-290" y="-1520" as="targetPoint" />
            <Array as="points">
              <mxPoint x="-450" y="-1510" />
            </Array>
          </mxGeometry>
        </mxCell>
        <mxCell id="BNUVI51xKu-enzcr6GFZ-282" value="" style="endArrow=none;html=1;rounded=0;exitX=0;exitY=0.5;exitDx=0;exitDy=0;" edge="1" parent="1" source="BNUVI51xKu-enzcr6GFZ-275">
          <mxGeometry relative="1" as="geometry">
            <mxPoint x="-374.97" y="-1329.57" as="sourcePoint" />
            <mxPoint x="-620" y="-1400" as="targetPoint" />
            <Array as="points">
              <mxPoint x="-450" y="-1400" />
            </Array>
          </mxGeometry>
        </mxCell>
        <mxCell id="BNUVI51xKu-enzcr6GFZ-283" value="" style="endArrow=none;html=1;rounded=0;exitX=0;exitY=0.5;exitDx=0;exitDy=0;entryX=1;entryY=0.5;entryDx=0;entryDy=0;" edge="1" parent="1" source="BNUVI51xKu-enzcr6GFZ-275" target="BNUVI51xKu-enzcr6GFZ-278">
          <mxGeometry relative="1" as="geometry">
            <mxPoint x="-509.97" y="-1500" as="sourcePoint" />
            <mxPoint x="-620" y="-1320" as="targetPoint" />
          </mxGeometry>
        </mxCell>
        <mxCell id="BNUVI51xKu-enzcr6GFZ-284" value="" style="endArrow=none;html=1;rounded=0;exitX=0;exitY=1;exitDx=0;exitDy=0;entryX=1;entryY=0.5;entryDx=0;entryDy=0;" edge="1" parent="1" source="BNUVI51xKu-enzcr6GFZ-275" target="BNUVI51xKu-enzcr6GFZ-279">
          <mxGeometry relative="1" as="geometry">
            <mxPoint x="-399.97" y="-1329.57" as="sourcePoint" />
            <mxPoint x="-525" y="-1250" as="targetPoint" />
            <Array as="points">
              <mxPoint x="-450" y="-1250" />
            </Array>
          </mxGeometry>
        </mxCell>
        <mxCell id="BNUVI51xKu-enzcr6GFZ-285" value="&lt;span style=&quot;font-size: 19px;&quot;&gt;HAS&lt;/span&gt;" style="shape=rhombus;perimeter=rhombusPerimeter;whiteSpace=wrap;html=1;align=center;fillColor=#dae8fc;strokeColor=#6c8ebf;" vertex="1" parent="1">
          <mxGeometry x="-130" y="-999.57" width="120" height="60" as="geometry" />
        </mxCell>
        <mxCell id="BNUVI51xKu-enzcr6GFZ-286" value="" style="shape=link;html=1;rounded=0;entryX=1;entryY=1;entryDx=0;entryDy=0;exitX=0.5;exitY=0;exitDx=0;exitDy=0;" edge="1" parent="1" source="BNUVI51xKu-enzcr6GFZ-285" target="BNUVI51xKu-enzcr6GFZ-275">
          <mxGeometry relative="1" as="geometry">
            <mxPoint x="-104.97" y="-975" as="sourcePoint" />
            <mxPoint x="-34.97" y="-649.57" as="targetPoint" />
          </mxGeometry>
        </mxCell>
        <mxCell id="BNUVI51xKu-enzcr6GFZ-287" value="N" style="resizable=0;html=1;whiteSpace=wrap;align=right;verticalAlign=bottom;" connectable="0" vertex="1" parent="BNUVI51xKu-enzcr6GFZ-286">
          <mxGeometry x="1" relative="1" as="geometry" />
        </mxCell>
        <mxCell id="BNUVI51xKu-enzcr6GFZ-288" value="" style="shape=link;html=1;rounded=0;width=-5;entryX=0;entryY=0.5;entryDx=0;entryDy=0;" edge="1" parent="1" source="BNUVI51xKu-enzcr6GFZ-285" target="BNUVI51xKu-enzcr6GFZ-267">
          <mxGeometry relative="1" as="geometry">
            <mxPoint x="-120" y="-730" as="sourcePoint" />
            <mxPoint x="40" y="-730" as="targetPoint" />
          </mxGeometry>
        </mxCell>
        <mxCell id="BNUVI51xKu-enzcr6GFZ-289" value="1" style="resizable=0;html=1;whiteSpace=wrap;align=right;verticalAlign=bottom;" connectable="0" vertex="1" parent="BNUVI51xKu-enzcr6GFZ-288">
          <mxGeometry x="1" relative="1" as="geometry" />
        </mxCell>
        <mxCell id="BNUVI51xKu-enzcr6GFZ-293" value="&lt;font style=&quot;font-size: 18px;&quot;&gt;answerid&lt;/font&gt;" style="rounded=1;arcSize=0;whiteSpace=wrap;html=1;align=center;fillColor=#f8cecc;strokeColor=#b85450;" vertex="1" parent="1">
          <mxGeometry x="1680" y="-1520" width="100" height="40" as="geometry" />
        </mxCell>
        <mxCell id="BNUVI51xKu-enzcr6GFZ-294" value="&lt;span style=&quot;border-bottom: 1px dotted&quot;&gt;&lt;font style=&quot;font-size: 18px;&quot;&gt;studentid&lt;/font&gt;&lt;/span&gt;" style="ellipse;whiteSpace=wrap;html=1;align=center;fillColor=#fff2cc;strokeColor=#d6b656;" vertex="1" parent="1">
          <mxGeometry x="1490" y="-1650" width="100" height="40" as="geometry" />
        </mxCell>
        <mxCell id="BNUVI51xKu-enzcr6GFZ-295" value="&lt;span style=&quot;border-bottom: 1px dotted&quot;&gt;&lt;font style=&quot;font-size: 18px;&quot;&gt;ques_id&lt;/font&gt;&lt;/span&gt;" style="ellipse;whiteSpace=wrap;html=1;align=center;fillColor=#fff2cc;strokeColor=#d6b656;" vertex="1" parent="1">
          <mxGeometry x="1660" y="-1650" width="100" height="40" as="geometry" />
        </mxCell>
        <mxCell id="BNUVI51xKu-enzcr6GFZ-296" value="&lt;span style=&quot;border-bottom: 1px dotted&quot;&gt;&lt;font style=&quot;font-size: 18px;&quot;&gt;choice_id&lt;/font&gt;&lt;/span&gt;" style="ellipse;whiteSpace=wrap;html=1;align=center;fillColor=#fff2cc;strokeColor=#d6b656;" vertex="1" parent="1">
          <mxGeometry x="1810" y="-1650" width="100" height="40" as="geometry" />
        </mxCell>
        <mxCell id="BNUVI51xKu-enzcr6GFZ-297" value="&lt;font style=&quot;font-size: 17px;&quot;&gt;answerid&lt;/font&gt;" style="ellipse;whiteSpace=wrap;html=1;align=center;fontStyle=4;fillColor=#fff2cc;strokeColor=#d6b656;" vertex="1" parent="1">
          <mxGeometry x="1320" y="-1650" width="100" height="40" as="geometry" />
        </mxCell>
        <mxCell id="BNUVI51xKu-enzcr6GFZ-298" value="" style="endArrow=none;html=1;rounded=0;exitX=0;exitY=0.25;exitDx=0;exitDy=0;entryX=1;entryY=0.5;entryDx=0;entryDy=0;" edge="1" parent="1" source="BNUVI51xKu-enzcr6GFZ-293" target="BNUVI51xKu-enzcr6GFZ-297">
          <mxGeometry relative="1" as="geometry">
            <mxPoint x="690" y="-1220" as="sourcePoint" />
            <mxPoint x="720" y="-1460" as="targetPoint" />
            <Array as="points">
              <mxPoint x="1520" y="-1530" />
            </Array>
          </mxGeometry>
        </mxCell>
        <mxCell id="BNUVI51xKu-enzcr6GFZ-299" value="" style="endArrow=none;html=1;rounded=0;exitX=0.25;exitY=0;exitDx=0;exitDy=0;entryX=1;entryY=1;entryDx=0;entryDy=0;" edge="1" parent="1" source="BNUVI51xKu-enzcr6GFZ-293" target="BNUVI51xKu-enzcr6GFZ-294">
          <mxGeometry relative="1" as="geometry">
            <mxPoint x="1670" y="-1510" as="sourcePoint" />
            <mxPoint x="1460" y="-1490" as="targetPoint" />
          </mxGeometry>
        </mxCell>
        <mxCell id="BNUVI51xKu-enzcr6GFZ-300" value="" style="endArrow=none;html=1;rounded=0;exitX=0.5;exitY=0;exitDx=0;exitDy=0;entryX=0.5;entryY=1;entryDx=0;entryDy=0;" edge="1" parent="1" source="BNUVI51xKu-enzcr6GFZ-293" target="BNUVI51xKu-enzcr6GFZ-295">
          <mxGeometry relative="1" as="geometry">
            <mxPoint x="1695" y="-1520" as="sourcePoint" />
            <mxPoint x="1545" y="-1606" as="targetPoint" />
          </mxGeometry>
        </mxCell>
        <mxCell id="BNUVI51xKu-enzcr6GFZ-301" value="" style="endArrow=none;html=1;rounded=0;exitX=1;exitY=0;exitDx=0;exitDy=0;entryX=0.5;entryY=1;entryDx=0;entryDy=0;" edge="1" parent="1" source="BNUVI51xKu-enzcr6GFZ-293" target="BNUVI51xKu-enzcr6GFZ-296">
          <mxGeometry relative="1" as="geometry">
            <mxPoint x="1720" y="-1520" as="sourcePoint" />
            <mxPoint x="1700" y="-1620" as="targetPoint" />
            <Array as="points">
              <mxPoint x="1860" y="-1550" />
            </Array>
          </mxGeometry>
        </mxCell>
        <mxCell id="BNUVI51xKu-enzcr6GFZ-304" value="&lt;span style=&quot;font-size: 19px;&quot;&gt;HAS&lt;/span&gt;" style="shape=rhombus;perimeter=rhombusPerimeter;whiteSpace=wrap;html=1;align=center;fillColor=#dae8fc;strokeColor=#6c8ebf;" vertex="1" parent="1">
          <mxGeometry x="-30" y="-1530" width="120" height="60" as="geometry" />
        </mxCell>
        <mxCell id="BNUVI51xKu-enzcr6GFZ-305" value="" style="shape=link;html=1;rounded=0;exitX=0.75;exitY=1;exitDx=0;exitDy=0;" edge="1" parent="1" source="BNUVI51xKu-enzcr6GFZ-293">
          <mxGeometry relative="1" as="geometry">
            <mxPoint x="-120" y="-1240" as="sourcePoint" />
            <mxPoint x="70" y="-1500" as="targetPoint" />
          </mxGeometry>
        </mxCell>
        <mxCell id="BNUVI51xKu-enzcr6GFZ-306" value="1" style="resizable=0;html=1;whiteSpace=wrap;align=right;verticalAlign=bottom;" connectable="0" vertex="1" parent="BNUVI51xKu-enzcr6GFZ-305">
          <mxGeometry x="1" relative="1" as="geometry" />
        </mxCell>
        <mxCell id="BNUVI51xKu-enzcr6GFZ-311" value="&lt;span style=&quot;font-size: 19px;&quot;&gt;HAS&lt;/span&gt;" style="shape=rhombus;perimeter=rhombusPerimeter;whiteSpace=wrap;html=1;align=center;fillColor=#dae8fc;strokeColor=#6c8ebf;" vertex="1" parent="1">
          <mxGeometry x="1200" y="-1190" width="120" height="60" as="geometry" />
        </mxCell>
        <mxCell id="BNUVI51xKu-enzcr6GFZ-312" value="" style="endArrow=none;html=1;rounded=0;exitX=0.75;exitY=0;exitDx=0;exitDy=0;entryX=0;entryY=1;entryDx=0;entryDy=0;" edge="1" parent="1" source="BNUVI51xKu-enzcr6GFZ-275" target="BNUVI51xKu-enzcr6GFZ-304">
          <mxGeometry relative="1" as="geometry">
            <mxPoint x="-120" y="-1240" as="sourcePoint" />
            <mxPoint x="40" y="-1240" as="targetPoint" />
          </mxGeometry>
        </mxCell>
        <mxCell id="BNUVI51xKu-enzcr6GFZ-313" value="N" style="resizable=0;html=1;whiteSpace=wrap;align=right;verticalAlign=bottom;" connectable="0" vertex="1" parent="BNUVI51xKu-enzcr6GFZ-312">
          <mxGeometry x="1" relative="1" as="geometry" />
        </mxCell>
        <mxCell id="BNUVI51xKu-enzcr6GFZ-314" value="" style="shape=link;html=1;rounded=0;entryX=0.5;entryY=0;entryDx=0;entryDy=0;exitX=1;exitY=0.75;exitDx=0;exitDy=0;" edge="1" parent="1" source="BNUVI51xKu-enzcr6GFZ-293" target="BNUVI51xKu-enzcr6GFZ-311">
          <mxGeometry relative="1" as="geometry">
            <mxPoint x="-120" y="-1240" as="sourcePoint" />
            <mxPoint x="40" y="-1240" as="targetPoint" />
          </mxGeometry>
        </mxCell>
        <mxCell id="BNUVI51xKu-enzcr6GFZ-315" value="1" style="resizable=0;html=1;whiteSpace=wrap;align=right;verticalAlign=bottom;" connectable="0" vertex="1" parent="BNUVI51xKu-enzcr6GFZ-314">
          <mxGeometry x="1" relative="1" as="geometry" />
        </mxCell>
        <mxCell id="BNUVI51xKu-enzcr6GFZ-316" value="" style="endArrow=none;html=1;rounded=0;exitX=1;exitY=0.25;exitDx=0;exitDy=0;entryX=0.5;entryY=1;entryDx=0;entryDy=0;" edge="1" parent="1" source="BNUVI51xKu-enzcr6GFZ-254" target="BNUVI51xKu-enzcr6GFZ-311">
          <mxGeometry relative="1" as="geometry">
            <mxPoint x="-120" y="-1240" as="sourcePoint" />
            <mxPoint x="40" y="-1240" as="targetPoint" />
          </mxGeometry>
        </mxCell>
        <mxCell id="BNUVI51xKu-enzcr6GFZ-317" value="N" style="resizable=0;html=1;whiteSpace=wrap;align=right;verticalAlign=bottom;" connectable="0" vertex="1" parent="BNUVI51xKu-enzcr6GFZ-316">
          <mxGeometry x="1" relative="1" as="geometry" />
        </mxCell>
        <mxCell id="BNUVI51xKu-enzcr6GFZ-318" value="&lt;span style=&quot;font-size: 19px;&quot;&gt;HAS&lt;/span&gt;" style="shape=rhombus;perimeter=rhombusPerimeter;whiteSpace=wrap;html=1;align=center;fillColor=#dae8fc;strokeColor=#6c8ebf;" vertex="1" parent="1">
          <mxGeometry x="1780" y="390" width="120" height="60" as="geometry" />
        </mxCell>
        <mxCell id="BNUVI51xKu-enzcr6GFZ-319" value="" style="shape=link;html=1;rounded=0;exitX=1;exitY=0.5;exitDx=0;exitDy=0;entryX=0;entryY=0;entryDx=0;entryDy=0;" edge="1" parent="1" source="BNUVI51xKu-enzcr6GFZ-293" target="BNUVI51xKu-enzcr6GFZ-318">
          <mxGeometry relative="1" as="geometry">
            <mxPoint x="610" y="-1360" as="sourcePoint" />
            <mxPoint x="770" y="-1360" as="targetPoint" />
          </mxGeometry>
        </mxCell>
        <mxCell id="BNUVI51xKu-enzcr6GFZ-320" value="N" style="resizable=0;html=1;whiteSpace=wrap;align=right;verticalAlign=bottom;" connectable="0" vertex="1" parent="BNUVI51xKu-enzcr6GFZ-319">
          <mxGeometry x="1" relative="1" as="geometry" />
        </mxCell>
        <mxCell id="BNUVI51xKu-enzcr6GFZ-321" value="" style="endArrow=none;html=1;rounded=0;entryX=0.5;entryY=1;entryDx=0;entryDy=0;exitX=1;exitY=0.5;exitDx=0;exitDy=0;" edge="1" parent="1" source="BNUVI51xKu-enzcr6GFZ-108" target="BNUVI51xKu-enzcr6GFZ-318">
          <mxGeometry relative="1" as="geometry">
            <mxPoint x="-350" y="40" as="sourcePoint" />
            <mxPoint x="-190" y="40" as="targetPoint" />
            <Array as="points">
              <mxPoint x="1070" y="1070" />
            </Array>
          </mxGeometry>
        </mxCell>
        <mxCell id="BNUVI51xKu-enzcr6GFZ-322" value="1" style="resizable=0;html=1;whiteSpace=wrap;align=right;verticalAlign=bottom;" connectable="0" vertex="1" parent="BNUVI51xKu-enzcr6GFZ-321">
          <mxGeometry x="1" relative="1" as="geometry" />
        </mxCell>
        <mxCell id="BNUVI51xKu-enzcr6GFZ-324" value="&lt;span style=&quot;font-size: 23px;&quot;&gt;StudentExamId&lt;/span&gt;" style="whiteSpace=wrap;html=1;align=center;fillColor=#f8cecc;strokeColor=#b85450;" vertex="1" parent="1">
          <mxGeometry x="1040" y="140" width="210" height="40" as="geometry" />
        </mxCell>
        <mxCell id="BNUVI51xKu-enzcr6GFZ-325" value="&lt;span style=&quot;border-bottom: 1px dotted&quot;&gt;&lt;font style=&quot;font-size: 16px;&quot;&gt;exam_id&lt;/font&gt;&lt;/span&gt;" style="ellipse;whiteSpace=wrap;html=1;align=center;fillColor=#fff2cc;strokeColor=#d6b656;" vertex="1" parent="1">
          <mxGeometry x="1340" y="10" width="100" height="40" as="geometry" />
        </mxCell>
        <mxCell id="BNUVI51xKu-enzcr6GFZ-326" value="&lt;span style=&quot;border-bottom: 1px dotted&quot;&gt;&lt;font style=&quot;font-size: 16px;&quot;&gt;StudentId&lt;/font&gt;&lt;/span&gt;" style="ellipse;whiteSpace=wrap;html=1;align=center;fillColor=#fff2cc;strokeColor=#d6b656;" vertex="1" parent="1">
          <mxGeometry x="1340" y="70" width="100" height="40" as="geometry" />
        </mxCell>
        <mxCell id="BNUVI51xKu-enzcr6GFZ-329" value="&lt;span style=&quot;font-size: 20px;&quot;&gt;Score&lt;/span&gt;" style="ellipse;whiteSpace=wrap;html=1;align=center;fillColor=#fff2cc;strokeColor=#d6b656;" vertex="1" parent="1">
          <mxGeometry x="1300" y="-60" width="140" height="40" as="geometry" />
        </mxCell>
        <mxCell id="BNUVI51xKu-enzcr6GFZ-330" value="&lt;span style=&quot;font-size: 20px;&quot;&gt;isactive&lt;/span&gt;" style="ellipse;whiteSpace=wrap;html=1;align=center;fillColor=#fff2cc;strokeColor=#d6b656;" vertex="1" parent="1">
          <mxGeometry x="1310" y="140" width="140" height="40" as="geometry" />
        </mxCell>
        <mxCell id="BNUVI51xKu-enzcr6GFZ-331" value="&lt;span style=&quot;font-size: 20px;&quot;&gt;pass_fail&lt;/span&gt;" style="ellipse;whiteSpace=wrap;html=1;align=center;fillColor=#fff2cc;strokeColor=#d6b656;" vertex="1" parent="1">
          <mxGeometry x="1310" y="210" width="140" height="40" as="geometry" />
        </mxCell>
        <mxCell id="BNUVI51xKu-enzcr6GFZ-332" value="&lt;span style=&quot;font-size: 20px;&quot;&gt;examination_date&lt;/span&gt;" style="ellipse;whiteSpace=wrap;html=1;align=center;fillColor=#fff2cc;strokeColor=#d6b656;" vertex="1" parent="1">
          <mxGeometry x="1240" y="290" width="210" height="40" as="geometry" />
        </mxCell>
        <mxCell id="BNUVI51xKu-enzcr6GFZ-333" value="v&lt;span style=&quot;color: rgba(0, 0, 0, 0); font-family: monospace; font-size: 0px; text-align: start;&quot;&gt;%3CmxGraphModel%3E%3Croot%3E%3CmxCell%20id%3D%220%22%2F%3E%3CmxCell%20id%3D%221%22%20parent%3D%220%22%2F%3E%3CmxCell%20id%3D%222%22%20value%3D%22%22%20style%3D%22endArrow%3Dnone%3Bhtml%3D1%3Brounded%3D0%3BentryX%3D0%3BentryY%3D1%3BentryDx%3D0%3BentryDy%3D0%3BexitX%3D1%3BexitY%3D0.75%3BexitDx%3D0%3BexitDy%3D0%3B%22%20edge%3D%221%22%20parent%3D%221%22%3E%3CmxGeometry%20relative%3D%221%22%20as%3D%22geometry%22%3E%3CmxPoint%20x%3D%22430%22%20y%3D%22180%22%20as%3D%22sourcePoint%22%2F%3E%3CmxPoint%20x%3D%22515%22%20y%3D%22154%22%20as%3D%22targetPoint%22%2F%3E%3C%2FmxGeometry%3E%3C%2FmxCell%3E%3C%2Froot%3E%3C%2FmxGraphModel%3E&lt;/span&gt;" style="endArrow=none;html=1;rounded=0;entryX=0;entryY=0.5;entryDx=0;entryDy=0;exitX=0.895;exitY=0.075;exitDx=0;exitDy=0;exitPerimeter=0;" edge="1" parent="1" source="BNUVI51xKu-enzcr6GFZ-324" target="BNUVI51xKu-enzcr6GFZ-325">
          <mxGeometry relative="1" as="geometry">
            <mxPoint x="440" y="190" as="sourcePoint" />
            <mxPoint x="525" y="164" as="targetPoint" />
          </mxGeometry>
        </mxCell>
        <mxCell id="BNUVI51xKu-enzcr6GFZ-334" value="v&lt;span style=&quot;color: rgba(0, 0, 0, 0); font-family: monospace; font-size: 0px; text-align: start;&quot;&gt;%3CmxGraphModel%3E%3Croot%3E%3CmxCell%20id%3D%220%22%2F%3E%3CmxCell%20id%3D%221%22%20parent%3D%220%22%2F%3E%3CmxCell%20id%3D%222%22%20value%3D%22%22%20style%3D%22endArrow%3Dnone%3Bhtml%3D1%3Brounded%3D0%3BentryX%3D0%3BentryY%3D1%3BentryDx%3D0%3BentryDy%3D0%3BexitX%3D1%3BexitY%3D0.75%3BexitDx%3D0%3BexitDy%3D0%3B%22%20edge%3D%221%22%20parent%3D%221%22%3E%3CmxGeometry%20relative%3D%221%22%20as%3D%22geometry%22%3E%3CmxPoint%20x%3D%22430%22%20y%3D%22180%22%20as%3D%22sourcePoint%22%2F%3E%3CmxPoint%20x%3D%22515%22%20y%3D%22154%22%20as%3D%22targetPoint%22%2F%3E%3C%2FmxGeometry%3E%3C%2FmxCell%3E%3C%2Froot%3E%3C%2FmxGraphModel%3E&lt;/span&gt;" style="endArrow=none;html=1;rounded=0;exitX=0.903;exitY=0.05;exitDx=0;exitDy=0;exitPerimeter=0;entryX=0;entryY=0.5;entryDx=0;entryDy=0;" edge="1" parent="1" source="BNUVI51xKu-enzcr6GFZ-324" target="BNUVI51xKu-enzcr6GFZ-326">
          <mxGeometry relative="1" as="geometry">
            <mxPoint x="1290" y="170" as="sourcePoint" />
            <mxPoint x="1350" y="90" as="targetPoint" />
          </mxGeometry>
        </mxCell>
        <mxCell id="BNUVI51xKu-enzcr6GFZ-335" value="v&lt;span style=&quot;color: rgba(0, 0, 0, 0); font-family: monospace; font-size: 0px; text-align: start;&quot;&gt;%3CmxGraphModel%3E%3Croot%3E%3CmxCell%20id%3D%220%22%2F%3E%3CmxCell%20id%3D%221%22%20parent%3D%220%22%2F%3E%3CmxCell%20id%3D%222%22%20value%3D%22%22%20style%3D%22endArrow%3Dnone%3Bhtml%3D1%3Brounded%3D0%3BentryX%3D0%3BentryY%3D1%3BentryDx%3D0%3BentryDy%3D0%3BexitX%3D1%3BexitY%3D0.75%3BexitDx%3D0%3BexitDy%3D0%3B%22%20edge%3D%221%22%20parent%3D%221%22%3E%3CmxGeometry%20relative%3D%221%22%20as%3D%22geometry%22%3E%3CmxPoint%20x%3D%22430%22%20y%3D%22180%22%20as%3D%22sourcePoint%22%2F%3E%3CmxPoint%20x%3D%22515%22%20y%3D%22154%22%20as%3D%22targetPoint%22%2F%3E%3C%2FmxGeometry%3E%3C%2FmxCell%3E%3C%2Froot%3E%3C%2FmxGraphModel%3E&lt;/span&gt;" style="endArrow=none;html=1;rounded=0;entryX=0;entryY=1;entryDx=0;entryDy=0;exitX=0.85;exitY=0.01;exitDx=0;exitDy=0;exitPerimeter=0;" edge="1" parent="1" source="BNUVI51xKu-enzcr6GFZ-324" target="BNUVI51xKu-enzcr6GFZ-329">
          <mxGeometry relative="1" as="geometry">
            <mxPoint x="1238" y="153" as="sourcePoint" />
            <mxPoint x="1335" y="44" as="targetPoint" />
            <Array as="points">
              <mxPoint x="1250" y="50" />
            </Array>
          </mxGeometry>
        </mxCell>
        <mxCell id="BNUVI51xKu-enzcr6GFZ-336" value="v&lt;span style=&quot;color: rgba(0, 0, 0, 0); font-family: monospace; font-size: 0px; text-align: start;&quot;&gt;%3CmxGraphModel%3E%3Croot%3E%3CmxCell%20id%3D%220%22%2F%3E%3CmxCell%20id%3D%221%22%20parent%3D%220%22%2F%3E%3CmxCell%20id%3D%222%22%20value%3D%22%22%20style%3D%22endArrow%3Dnone%3Bhtml%3D1%3Brounded%3D0%3BentryX%3D0%3BentryY%3D1%3BentryDx%3D0%3BentryDy%3D0%3BexitX%3D1%3BexitY%3D0.75%3BexitDx%3D0%3BexitDy%3D0%3B%22%20edge%3D%221%22%20parent%3D%221%22%3E%3CmxGeometry%20relative%3D%221%22%20as%3D%22geometry%22%3E%3CmxPoint%20x%3D%22430%22%20y%3D%22180%22%20as%3D%22sourcePoint%22%2F%3E%3CmxPoint%20x%3D%22515%22%20y%3D%22154%22%20as%3D%22targetPoint%22%2F%3E%3C%2FmxGeometry%3E%3C%2FmxCell%3E%3C%2Froot%3E%3C%2FmxGraphModel%3E&lt;/span&gt;" style="endArrow=none;html=1;rounded=0;exitX=1;exitY=0.25;exitDx=0;exitDy=0;entryX=0;entryY=0.5;entryDx=0;entryDy=0;" edge="1" parent="1" source="BNUVI51xKu-enzcr6GFZ-324" target="BNUVI51xKu-enzcr6GFZ-330">
          <mxGeometry relative="1" as="geometry">
            <mxPoint x="1250" y="170" as="sourcePoint" />
            <mxPoint x="1330" y="160" as="targetPoint" />
            <Array as="points">
              <mxPoint x="1280" y="170" />
            </Array>
          </mxGeometry>
        </mxCell>
        <mxCell id="BNUVI51xKu-enzcr6GFZ-337" value="v&lt;span style=&quot;color: rgba(0, 0, 0, 0); font-family: monospace; font-size: 0px; text-align: start;&quot;&gt;%3CmxGraphModel%3E%3Croot%3E%3CmxCell%20id%3D%220%22%2F%3E%3CmxCell%20id%3D%221%22%20parent%3D%220%22%2F%3E%3CmxCell%20id%3D%222%22%20value%3D%22%22%20style%3D%22endArrow%3Dnone%3Bhtml%3D1%3Brounded%3D0%3BentryX%3D0%3BentryY%3D1%3BentryDx%3D0%3BentryDy%3D0%3BexitX%3D1%3BexitY%3D0.75%3BexitDx%3D0%3BexitDy%3D0%3B%22%20edge%3D%221%22%20parent%3D%221%22%3E%3CmxGeometry%20relative%3D%221%22%20as%3D%22geometry%22%3E%3CmxPoint%20x%3D%22430%22%20y%3D%22180%22%20as%3D%22sourcePoint%22%2F%3E%3CmxPoint%20x%3D%22515%22%20y%3D%22154%22%20as%3D%22targetPoint%22%2F%3E%3C%2FmxGeometry%3E%3C%2FmxCell%3E%3C%2Froot%3E%3C%2FmxGraphModel%3E&lt;/span&gt;" style="endArrow=none;html=1;rounded=0;entryX=0;entryY=0;entryDx=0;entryDy=0;exitX=1;exitY=0.75;exitDx=0;exitDy=0;" edge="1" parent="1" source="BNUVI51xKu-enzcr6GFZ-324" target="BNUVI51xKu-enzcr6GFZ-331">
          <mxGeometry relative="1" as="geometry">
            <mxPoint x="1050" y="180" as="sourcePoint" />
            <mxPoint x="959" y="184" as="targetPoint" />
            <Array as="points">
              <mxPoint x="1270" y="216" />
            </Array>
          </mxGeometry>
        </mxCell>
        <mxCell id="BNUVI51xKu-enzcr6GFZ-338" value="v&lt;span style=&quot;color: rgba(0, 0, 0, 0); font-family: monospace; font-size: 0px; text-align: start;&quot;&gt;%3CmxGraphModel%3E%3Croot%3E%3CmxCell%20id%3D%220%22%2F%3E%3CmxCell%20id%3D%221%22%20parent%3D%220%22%2F%3E%3CmxCell%20id%3D%222%22%20value%3D%22%22%20style%3D%22endArrow%3Dnone%3Bhtml%3D1%3Brounded%3D0%3BentryX%3D0%3BentryY%3D1%3BentryDx%3D0%3BentryDy%3D0%3BexitX%3D1%3BexitY%3D0.75%3BexitDx%3D0%3BexitDy%3D0%3B%22%20edge%3D%221%22%20parent%3D%221%22%3E%3CmxGeometry%20relative%3D%221%22%20as%3D%22geometry%22%3E%3CmxPoint%20x%3D%22430%22%20y%3D%22180%22%20as%3D%22sourcePoint%22%2F%3E%3CmxPoint%20x%3D%22515%22%20y%3D%22154%22%20as%3D%22targetPoint%22%2F%3E%3C%2FmxGeometry%3E%3C%2FmxCell%3E%3C%2Froot%3E%3C%2FmxGraphModel%3E&lt;/span&gt;" style="endArrow=none;html=1;rounded=0;entryX=0;entryY=0.5;entryDx=0;entryDy=0;exitX=0.888;exitY=0.93;exitDx=0;exitDy=0;exitPerimeter=0;" edge="1" parent="1" source="BNUVI51xKu-enzcr6GFZ-324" target="BNUVI51xKu-enzcr6GFZ-332">
          <mxGeometry relative="1" as="geometry">
            <mxPoint x="1083" y="196" as="sourcePoint" />
            <mxPoint x="939" y="256" as="targetPoint" />
          </mxGeometry>
        </mxCell>
        <mxCell id="BNUVI51xKu-enzcr6GFZ-340" value="&lt;font style=&quot;font-size: 21px;&quot;&gt;Has&lt;/font&gt;" style="shape=rhombus;perimeter=rhombusPerimeter;whiteSpace=wrap;html=1;align=center;fillColor=#dae8fc;strokeColor=#6c8ebf;" vertex="1" parent="1">
          <mxGeometry x="910" y="810" width="120" height="40" as="geometry" />
        </mxCell>
        <mxCell id="BNUVI51xKu-enzcr6GFZ-343" value="" style="shape=link;html=1;rounded=0;entryX=0.5;entryY=0;entryDx=0;entryDy=0;exitX=0.5;exitY=1;exitDx=0;exitDy=0;" edge="1" parent="1" source="BNUVI51xKu-enzcr6GFZ-324" target="BNUVI51xKu-enzcr6GFZ-340">
          <mxGeometry relative="1" as="geometry">
            <mxPoint x="530" y="260" as="sourcePoint" />
            <mxPoint x="690" y="260" as="targetPoint" />
          </mxGeometry>
        </mxCell>
        <mxCell id="BNUVI51xKu-enzcr6GFZ-344" value="1" style="resizable=0;html=1;whiteSpace=wrap;align=right;verticalAlign=bottom;" connectable="0" vertex="1" parent="BNUVI51xKu-enzcr6GFZ-343">
          <mxGeometry x="1" relative="1" as="geometry" />
        </mxCell>
        <mxCell id="BNUVI51xKu-enzcr6GFZ-345" value="" style="endArrow=none;html=1;rounded=0;entryX=0;entryY=0.5;entryDx=0;entryDy=0;exitX=1;exitY=1;exitDx=0;exitDy=0;" edge="1" parent="1" source="BNUVI51xKu-enzcr6GFZ-108" target="BNUVI51xKu-enzcr6GFZ-340">
          <mxGeometry relative="1" as="geometry">
            <mxPoint x="-210" y="740" as="sourcePoint" />
            <mxPoint x="690" y="260" as="targetPoint" />
          </mxGeometry>
        </mxCell>
        <mxCell id="BNUVI51xKu-enzcr6GFZ-346" value="N" style="resizable=0;html=1;whiteSpace=wrap;align=right;verticalAlign=bottom;" connectable="0" vertex="1" parent="BNUVI51xKu-enzcr6GFZ-345">
          <mxGeometry x="1" relative="1" as="geometry" />
        </mxCell>
        <mxCell id="BNUVI51xKu-enzcr6GFZ-347" value="&lt;span style=&quot;font-size: 19px;&quot;&gt;HAS&lt;/span&gt;" style="shape=rhombus;perimeter=rhombusPerimeter;whiteSpace=wrap;html=1;align=center;fillColor=#dae8fc;strokeColor=#6c8ebf;" vertex="1" parent="1">
          <mxGeometry x="1240" y="-240" width="120" height="60" as="geometry" />
        </mxCell>
        <mxCell id="BNUVI51xKu-enzcr6GFZ-348" value="" style="shape=link;html=1;rounded=0;entryX=0;entryY=1;entryDx=0;entryDy=0;exitX=0.629;exitY=0.142;exitDx=0;exitDy=0;exitPerimeter=0;" edge="1" parent="1" source="BNUVI51xKu-enzcr6GFZ-324" target="BNUVI51xKu-enzcr6GFZ-347">
          <mxGeometry relative="1" as="geometry">
            <mxPoint x="530" y="-20" as="sourcePoint" />
            <mxPoint x="690" y="-20" as="targetPoint" />
          </mxGeometry>
        </mxCell>
        <mxCell id="BNUVI51xKu-enzcr6GFZ-349" value="1" style="resizable=0;html=1;whiteSpace=wrap;align=right;verticalAlign=bottom;" connectable="0" vertex="1" parent="BNUVI51xKu-enzcr6GFZ-348">
          <mxGeometry x="1" relative="1" as="geometry" />
        </mxCell>
        <mxCell id="BNUVI51xKu-enzcr6GFZ-350" value="" style="endArrow=none;html=1;rounded=0;entryX=0.5;entryY=0;entryDx=0;entryDy=0;exitX=0.75;exitY=1;exitDx=0;exitDy=0;" edge="1" parent="1" source="BNUVI51xKu-enzcr6GFZ-218" target="BNUVI51xKu-enzcr6GFZ-347">
          <mxGeometry relative="1" as="geometry">
            <mxPoint x="530" y="-20" as="sourcePoint" />
            <mxPoint x="690" y="-20" as="targetPoint" />
          </mxGeometry>
        </mxCell>
        <mxCell id="BNUVI51xKu-enzcr6GFZ-351" value="N" style="resizable=0;html=1;whiteSpace=wrap;align=right;verticalAlign=bottom;" connectable="0" vertex="1" parent="BNUVI51xKu-enzcr6GFZ-350">
          <mxGeometry x="1" relative="1" as="geometry" />
        </mxCell>
        <mxCell id="BNUVI51xKu-enzcr6GFZ-352" value="&lt;font style=&quot;font-size: 18px;&quot;&gt;UserAssignment&lt;/font&gt;" style="rounded=1;arcSize=10;whiteSpace=wrap;html=1;align=center;fillColor=#f8cecc;strokeColor=#b85450;" vertex="1" parent="1">
          <mxGeometry x="100" y="-40.26" width="140" height="40" as="geometry" />
        </mxCell>
        <mxCell id="BNUVI51xKu-enzcr6GFZ-353" value="&lt;span style=&quot;font-size: 20px;&quot;&gt;assignmentId&lt;/span&gt;" style="ellipse;whiteSpace=wrap;html=1;align=center;fillColor=#fff2cc;strokeColor=#d6b656;" vertex="1" parent="1">
          <mxGeometry x="-80" y="-170" width="140" height="40" as="geometry" />
        </mxCell>
        <mxCell id="BNUVI51xKu-enzcr6GFZ-354" value="&lt;span style=&quot;font-size: 18px;&quot;&gt;isactive&lt;/span&gt;" style="ellipse;whiteSpace=wrap;html=1;align=center;fillColor=#fff2cc;strokeColor=#d6b656;" vertex="1" parent="1">
          <mxGeometry x="100" y="-180" width="100" height="40" as="geometry" />
        </mxCell>
        <mxCell id="BNUVI51xKu-enzcr6GFZ-357" value="&lt;span style=&quot;border-bottom: 1px dotted&quot;&gt;&lt;font style=&quot;font-size: 18px;&quot;&gt;track_id&lt;/font&gt;&lt;/span&gt;" style="ellipse;whiteSpace=wrap;html=1;align=center;fillColor=#fff2cc;strokeColor=#d6b656;" vertex="1" parent="1">
          <mxGeometry x="240" y="-180" width="100" height="40" as="geometry" />
        </mxCell>
        <mxCell id="BNUVI51xKu-enzcr6GFZ-358" value="&lt;span style=&quot;border-bottom: 1px dotted&quot;&gt;&lt;font style=&quot;font-size: 18px;&quot;&gt;userId&lt;/font&gt;&lt;/span&gt;" style="ellipse;whiteSpace=wrap;html=1;align=center;fillColor=#fff2cc;strokeColor=#d6b656;" vertex="1" parent="1">
          <mxGeometry x="-90" y="-90.26" width="100" height="40" as="geometry" />
        </mxCell>
        <mxCell id="BNUVI51xKu-enzcr6GFZ-359" value="&lt;span style=&quot;border-bottom: 1px dotted&quot;&gt;&lt;font style=&quot;font-size: 18px;&quot;&gt;branch_id&lt;/font&gt;&lt;/span&gt;" style="ellipse;whiteSpace=wrap;html=1;align=center;fillColor=#fff2cc;strokeColor=#d6b656;" vertex="1" parent="1">
          <mxGeometry x="-90" y="-20" width="100" height="40" as="geometry" />
        </mxCell>
        <mxCell id="BNUVI51xKu-enzcr6GFZ-360" value="" style="endArrow=none;html=1;rounded=0;exitX=0;exitY=0.5;exitDx=0;exitDy=0;entryX=1;entryY=0.5;entryDx=0;entryDy=0;" edge="1" parent="1" source="BNUVI51xKu-enzcr6GFZ-352" target="BNUVI51xKu-enzcr6GFZ-359">
          <mxGeometry width="50" height="50" relative="1" as="geometry">
            <mxPoint x="615" y="90" as="sourcePoint" />
            <mxPoint x="520" y="4" as="targetPoint" />
          </mxGeometry>
        </mxCell>
        <mxCell id="BNUVI51xKu-enzcr6GFZ-361" value="" style="endArrow=none;html=1;rounded=0;exitX=0;exitY=0;exitDx=0;exitDy=0;entryX=1;entryY=0.5;entryDx=0;entryDy=0;" edge="1" parent="1" source="BNUVI51xKu-enzcr6GFZ-352" target="BNUVI51xKu-enzcr6GFZ-358">
          <mxGeometry width="50" height="50" relative="1" as="geometry">
            <mxPoint x="110" y="-10" as="sourcePoint" />
            <mxPoint x="20" y="10" as="targetPoint" />
          </mxGeometry>
        </mxCell>
        <mxCell id="BNUVI51xKu-enzcr6GFZ-362" value="" style="endArrow=none;html=1;rounded=0;exitX=0.25;exitY=0;exitDx=0;exitDy=0;entryX=0.7;entryY=1;entryDx=0;entryDy=0;entryPerimeter=0;" edge="1" parent="1" source="BNUVI51xKu-enzcr6GFZ-352" target="BNUVI51xKu-enzcr6GFZ-353">
          <mxGeometry width="50" height="50" relative="1" as="geometry">
            <mxPoint x="110" y="-30" as="sourcePoint" />
            <mxPoint x="110" y="-110" as="targetPoint" />
          </mxGeometry>
        </mxCell>
        <mxCell id="BNUVI51xKu-enzcr6GFZ-363" value="" style="endArrow=none;html=1;rounded=0;entryX=0.5;entryY=1;entryDx=0;entryDy=0;" edge="1" parent="1" target="BNUVI51xKu-enzcr6GFZ-354">
          <mxGeometry width="50" height="50" relative="1" as="geometry">
            <mxPoint x="150" y="-50" as="sourcePoint" />
            <mxPoint x="108" y="-110" as="targetPoint" />
          </mxGeometry>
        </mxCell>
        <mxCell id="BNUVI51xKu-enzcr6GFZ-364" value="" style="endArrow=none;html=1;rounded=0;exitX=0.75;exitY=0;exitDx=0;exitDy=0;entryX=0.4;entryY=0.95;entryDx=0;entryDy=0;entryPerimeter=0;" edge="1" parent="1" source="BNUVI51xKu-enzcr6GFZ-352" target="BNUVI51xKu-enzcr6GFZ-357">
          <mxGeometry width="50" height="50" relative="1" as="geometry">
            <mxPoint x="192" y="-30" as="sourcePoint" />
            <mxPoint x="195" y="-176" as="targetPoint" />
            <Array as="points">
              <mxPoint x="280" y="-80" />
            </Array>
          </mxGeometry>
        </mxCell>
        <mxCell id="BNUVI51xKu-enzcr6GFZ-365" value="Has" style="shape=rhombus;perimeter=rhombusPerimeter;whiteSpace=wrap;html=1;align=center;fillColor=#dae8fc;strokeColor=#6c8ebf;" vertex="1" parent="1">
          <mxGeometry x="330" y="69.74" width="120" height="60" as="geometry" />
        </mxCell>
        <mxCell id="BNUVI51xKu-enzcr6GFZ-366" value="" style="endArrow=none;html=1;rounded=0;entryX=1;entryY=0.5;entryDx=0;entryDy=0;exitX=0;exitY=0.5;exitDx=0;exitDy=0;" edge="1" parent="1" source="BNUVI51xKu-enzcr6GFZ-45" target="BNUVI51xKu-enzcr6GFZ-365">
          <mxGeometry relative="1" as="geometry">
            <mxPoint x="30" y="140" as="sourcePoint" />
            <mxPoint x="190" y="140" as="targetPoint" />
          </mxGeometry>
        </mxCell>
        <mxCell id="BNUVI51xKu-enzcr6GFZ-367" value="N" style="resizable=0;html=1;whiteSpace=wrap;align=right;verticalAlign=bottom;" connectable="0" vertex="1" parent="BNUVI51xKu-enzcr6GFZ-366">
          <mxGeometry x="1" relative="1" as="geometry" />
        </mxCell>
        <mxCell id="BNUVI51xKu-enzcr6GFZ-368" value="" style="shape=link;html=1;rounded=0;entryX=0;entryY=0.5;entryDx=0;entryDy=0;exitX=1;exitY=0.5;exitDx=0;exitDy=0;" edge="1" parent="1" source="BNUVI51xKu-enzcr6GFZ-352" target="BNUVI51xKu-enzcr6GFZ-365">
          <mxGeometry relative="1" as="geometry">
            <mxPoint x="30" y="140" as="sourcePoint" />
            <mxPoint x="190" y="140" as="targetPoint" />
          </mxGeometry>
        </mxCell>
        <mxCell id="BNUVI51xKu-enzcr6GFZ-369" value="1" style="resizable=0;html=1;whiteSpace=wrap;align=right;verticalAlign=bottom;" connectable="0" vertex="1" parent="BNUVI51xKu-enzcr6GFZ-368">
          <mxGeometry x="1" relative="1" as="geometry" />
        </mxCell>
        <mxCell id="BNUVI51xKu-enzcr6GFZ-370" value="Has" style="shape=rhombus;perimeter=rhombusPerimeter;whiteSpace=wrap;html=1;align=center;fillColor=#dae8fc;strokeColor=#6c8ebf;" vertex="1" parent="1">
          <mxGeometry x="110" y="230" width="120" height="60" as="geometry" />
        </mxCell>
        <mxCell id="BNUVI51xKu-enzcr6GFZ-371" value="" style="endArrow=none;html=1;rounded=0;entryX=0.667;entryY=0.833;entryDx=0;entryDy=0;entryPerimeter=0;" edge="1" parent="1" source="BNUVI51xKu-enzcr6GFZ-44" target="BNUVI51xKu-enzcr6GFZ-370">
          <mxGeometry relative="1" as="geometry">
            <mxPoint x="30" y="290" as="sourcePoint" />
            <mxPoint x="190" y="290" as="targetPoint" />
          </mxGeometry>
        </mxCell>
        <mxCell id="BNUVI51xKu-enzcr6GFZ-372" value="N" style="resizable=0;html=1;whiteSpace=wrap;align=right;verticalAlign=bottom;" connectable="0" vertex="1" parent="BNUVI51xKu-enzcr6GFZ-371">
          <mxGeometry x="1" relative="1" as="geometry" />
        </mxCell>
        <mxCell id="BNUVI51xKu-enzcr6GFZ-373" value="" style="shape=link;html=1;rounded=0;entryX=0.5;entryY=0;entryDx=0;entryDy=0;" edge="1" parent="1" source="BNUVI51xKu-enzcr6GFZ-352" target="BNUVI51xKu-enzcr6GFZ-370">
          <mxGeometry relative="1" as="geometry">
            <mxPoint x="30" y="290" as="sourcePoint" />
            <mxPoint x="190" y="290" as="targetPoint" />
          </mxGeometry>
        </mxCell>
        <mxCell id="BNUVI51xKu-enzcr6GFZ-374" value="1" style="resizable=0;html=1;whiteSpace=wrap;align=right;verticalAlign=bottom;" connectable="0" vertex="1" parent="BNUVI51xKu-enzcr6GFZ-373">
          <mxGeometry x="1" relative="1" as="geometry" />
        </mxCell>
        <mxCell id="BNUVI51xKu-enzcr6GFZ-375" value="&lt;font style=&quot;font-size: 17px;&quot;&gt;IS&lt;/font&gt;" style="shape=rhombus;perimeter=rhombusPerimeter;whiteSpace=wrap;html=1;align=center;fillColor=#dae8fc;strokeColor=#6c8ebf;" vertex="1" parent="1">
          <mxGeometry x="-90" y="140" width="120" height="60" as="geometry" />
        </mxCell>
        <mxCell id="BNUVI51xKu-enzcr6GFZ-386" value="" style="shape=link;html=1;rounded=0;exitX=0.5;exitY=0;exitDx=0;exitDy=0;entryX=0;entryY=1;entryDx=0;entryDy=0;" edge="1" parent="1" source="BNUVI51xKu-enzcr6GFZ-375" target="BNUVI51xKu-enzcr6GFZ-352">
          <mxGeometry relative="1" as="geometry">
            <mxPoint x="30" y="340" as="sourcePoint" />
            <mxPoint x="190" y="340" as="targetPoint" />
          </mxGeometry>
        </mxCell>
        <mxCell id="BNUVI51xKu-enzcr6GFZ-387" value="N" style="resizable=0;html=1;whiteSpace=wrap;align=right;verticalAlign=bottom;" connectable="0" vertex="1" parent="BNUVI51xKu-enzcr6GFZ-386">
          <mxGeometry x="1" relative="1" as="geometry" />
        </mxCell>
        <mxCell id="BNUVI51xKu-enzcr6GFZ-388" value="" style="endArrow=none;html=1;rounded=0;exitX=1;exitY=0.25;exitDx=0;exitDy=0;" edge="1" parent="1" source="BNUVI51xKu-enzcr6GFZ-59" target="BNUVI51xKu-enzcr6GFZ-375">
          <mxGeometry relative="1" as="geometry">
            <mxPoint x="30" y="340" as="sourcePoint" />
            <mxPoint x="190" y="340" as="targetPoint" />
          </mxGeometry>
        </mxCell>
        <mxCell id="BNUVI51xKu-enzcr6GFZ-389" value="1" style="resizable=0;html=1;whiteSpace=wrap;align=right;verticalAlign=bottom;" connectable="0" vertex="1" parent="BNUVI51xKu-enzcr6GFZ-388">
          <mxGeometry x="1" relative="1" as="geometry" />
        </mxCell>
      </root>
    </mxGraphModel>
  </diagram>
</mxfile>
